<?xml version="1.0" encoding="UTF-8" standalone="no" ?>
<!DOCTYPE svg PUBLIC "-//W3C//DTD SVG 1.1//EN" "http://www.w3.org/Graphics/SVG/1.1/DTD/svg11.dtd">
<svg xmlns="http://www.w3.org/2000/svg" xmlns:xlink="http://www.w3.org/1999/xlink" version="1.1" width="1080" height="1080" viewBox="0 0 1080 1080" xml:space="preserve">
<desc>Created with Fabric.js 5.2.4</desc>
<defs>
</defs>
<rect x="0" y="0" width="100%" height="100%" fill="transparent"></rect>
<g transform="matrix(1 0 0 1 540 540)" id="fde55ac0-4be6-40ce-bfe6-a5f5c11a8079"  >
<rect style="stroke: none; stroke-width: 1; stroke-dasharray: none; stroke-linecap: butt; stroke-dashoffset: 0; stroke-linejoin: miter; stroke-miterlimit: 4; fill: rgb(255,255,255); fill-rule: nonzero; opacity: 1; visibility: hidden;" vector-effect="non-scaling-stroke"  x="-540" y="-540" rx="0" ry="0" width="1080" height="1080" />
</g>
<g transform="matrix(1 0 0 1 540 540)" id="abda2064-da3a-4c10-8a3b-5c726b069130"  >
</g>
<g transform="matrix(5.84 0 0 5.84 540 540)"  >
<g style="" vector-effect="non-scaling-stroke"   >
		<g transform="matrix(1.33 0 0 1.33 1.39 15.37)" clip-path="url(#CLIPPATH_5)"  >
<clipPath id="CLIPPATH_5" >
	<path transform="matrix(1 0 0 1 0.08 0.08) translate(-187.58, -167.6)" id="46" d="M 130.207031 110.226562 L 244.957031 110.226562 L 244.957031 224.976562 L 130.207031 224.976562 Z M 130.207031 110.226562" stroke-linecap="round" />
</clipPath>
<path style="stroke: none; stroke-width: 1; stroke-dasharray: none; stroke-linecap: butt; stroke-dashoffset: 0; stroke-linejoin: miter; stroke-miterlimit: 4; fill: rgb(191,215,234); fill-rule: evenodd; opacity: 1;" vector-effect="non-scaling-stroke"  transform=" translate(-187.5, -167.52)" d="M 194.246094 224.8125 L 180.753906 224.8125 C 180.082031 224.8125 179.546875 224.34375 179.410156 223.738281 L 176.996094 212.730469 C 172.027344 211.589844 167.261719 209.644531 162.898438 206.890625 L 153.433594 213 C 152.894531 213.335938 152.222656 213.269531 151.753906 212.796875 L 142.222656 203.199219 C 141.753906 202.796875 141.683594 202.058594 142.019531 201.519531 L 148.0625 192.054688 C 145.378906 187.691406 143.363281 182.992188 142.222656 177.960938 L 131.28125 175.609375 C 130.609375 175.476562 130.207031 174.871094 130.207031 174.265625 L 130.207031 160.773438 C 130.207031 160.101562 130.609375 159.566406 131.28125 159.433594 L 142.222656 157.015625 C 143.363281 152.046875 145.378906 147.28125 148.0625 142.917969 L 142.019531 133.453125 C 141.683594 132.917969 141.753906 132.246094 142.222656 131.777344 L 151.753906 122.242188 C 152.222656 121.773438 152.894531 121.707031 153.433594 122.042969 L 162.898438 128.082031 C 167.261719 125.398438 172.027344 123.382812 176.996094 122.242188 L 179.410156 111.300781 C 179.546875 110.699219 180.082031 110.226562 180.753906 110.226562 L 194.246094 110.226562 C 194.917969 110.226562 195.453125 110.699219 195.589844 111.300781 L 197.9375 122.242188 C 202.972656 123.453125 207.738281 125.398438 212.101562 128.152344 L 221.566406 122.042969 C 222.105469 121.707031 222.773438 121.773438 223.246094 122.242188 L 232.777344 131.777344 C 233.246094 132.246094 233.3125 132.917969 232.976562 133.453125 L 226.871094 142.917969 C 229.621094 147.28125 231.570312 152.046875 232.777344 157.015625 L 243.71875 159.433594 C 244.324219 159.566406 244.792969 160.101562 244.792969 160.773438 L 244.792969 174.265625 C 244.792969 174.9375 244.324219 175.476562 243.71875 175.609375 L 232.777344 178.027344 C 231.570312 182.992188 229.621094 187.757812 226.871094 192.121094 L 232.976562 201.585938 C 233.3125 202.125 233.246094 202.796875 232.777344 203.265625 L 223.246094 212.796875 C 222.773438 213.269531 222.105469 213.335938 221.566406 213 L 212.101562 206.957031 C 207.738281 209.644531 202.972656 211.65625 197.9375 212.796875 L 195.589844 223.738281 C 195.453125 224.34375 194.851562 224.8125 194.246094 224.8125 Z M 187.464844 200.3125 C 169.410156 200.3125 154.707031 185.613281 154.707031 167.488281 C 154.707031 149.429688 169.410156 134.730469 187.464844 134.730469 C 205.589844 134.730469 220.292969 149.429688 220.292969 167.488281 C 220.292969 185.613281 205.589844 200.3125 187.464844 200.3125 Z M 187.464844 200.3125" stroke-linecap="round" />
</g>
		<g transform="matrix(1.33 0 0 1.33 1.39 15.35)"  >
<path style="stroke: none; stroke-width: 1; stroke-dasharray: none; stroke-linecap: butt; stroke-dashoffset: 0; stroke-linejoin: miter; stroke-miterlimit: 4; fill: rgb(191,215,234); fill-rule: evenodd; opacity: 1;" vector-effect="non-scaling-stroke"  transform=" translate(-187.5, -167.5)" d="M 168.671875 167.488281 L 175.851562 174.667969 C 177.53125 176.347656 176.324219 179.234375 173.90625 179.234375 C 173.234375 179.234375 172.5625 178.964844 172.027344 178.429688 L 163.03125 169.433594 C 161.957031 168.359375 161.957031 166.683594 163.03125 165.609375 L 172.027344 156.546875 C 172.699219 155.875 173.636719 155.605469 174.578125 155.875 C 176.589844 156.410156 177.328125 158.828125 175.851562 160.371094 Z M 206.261719 167.488281 L 199.144531 160.371094 C 198.476562 159.699219 198.140625 158.761719 198.40625 157.820312 C 198.945312 155.875 201.429688 155.070312 202.90625 156.546875 L 211.96875 165.609375 C 213.042969 166.683594 213.042969 168.359375 211.96875 169.433594 L 202.90625 178.429688 C 202.433594 178.964844 201.765625 179.234375 201.027344 179.234375 C 198.675781 179.234375 197.46875 176.347656 199.144531 174.667969 Z M 206.261719 167.488281" stroke-linecap="round" />
</g>
		<g transform="matrix(1.33 0 0 1.33 1.36 15.33)"  >
<path style="stroke: none; stroke-width: 1; stroke-dasharray: none; stroke-linecap: butt; stroke-dashoffset: 0; stroke-linejoin: miter; stroke-miterlimit: 4; fill: rgb(191,215,234); fill-rule: evenodd; opacity: 1;" vector-effect="non-scaling-stroke"  transform=" translate(-187.48, -167.49)" d="M 181.425781 180.644531 C 179.410156 180.644531 178.066406 178.429688 179.074219 176.617188 L 191.15625 155.671875 C 191.695312 154.867188 192.5 154.332031 193.507812 154.332031 C 195.519531 154.398438 196.929688 156.546875 195.855469 158.359375 L 183.773438 179.300781 C 183.304688 180.105469 182.363281 180.644531 181.425781 180.644531 Z M 181.425781 180.644531" stroke-linecap="round" />
</g>
		<g transform="matrix(1.33 0 0 1.33 -78.67 -40.94)"  >
<path style="stroke: none; stroke-width: 1; stroke-dasharray: none; stroke-linecap: butt; stroke-dashoffset: 0; stroke-linejoin: miter; stroke-miterlimit: 4; fill: rgb(191,215,234); fill-rule: nonzero; opacity: 1;" vector-effect="non-scaling-stroke"  transform=" translate(1.83, 8.71)" d="M 2.796875 -11.703125 C 3.878906 -10.835938 4.488281 -9.800781 4.625 -8.59375 C 4.757812 -7.394531 4.398438 -6.171875 3.546875 -4.921875 C 2.617188 -3.554688 1.4375 -2.796875 0 -2.640625 C -1.445312 -2.492188 -2.972656 -2.960938 -4.578125 -4.046875 L -5.21875 -4.5 C -6.238281 -5.1875 -7.019531 -5.972656 -7.5625 -6.859375 C -8.101562 -7.742188 -8.351562 -8.664062 -8.3125 -9.625 C -8.269531 -10.582031 -7.945312 -11.503906 -7.34375 -12.390625 C -6.507812 -13.617188 -5.507812 -14.378906 -4.34375 -14.671875 C -3.175781 -14.972656 -1.957031 -14.78125 -0.6875 -14.09375 L -2.1875 -11.890625 C -2.90625 -12.304688 -3.523438 -12.457031 -4.046875 -12.34375 C -4.578125 -12.226562 -5.070312 -11.832031 -5.53125 -11.15625 C -6.03125 -10.425781 -6.140625 -9.703125 -5.859375 -8.984375 C -5.585938 -8.273438 -4.910156 -7.539062 -3.828125 -6.78125 L -3.015625 -6.234375 C -1.867188 -5.453125 -0.910156 -5.050781 -0.140625 -5.03125 C 0.617188 -5.007812 1.253906 -5.375 1.765625 -6.125 C 2.234375 -6.800781 2.425781 -7.410156 2.34375 -7.953125 C 2.269531 -8.503906 1.925781 -9.023438 1.3125 -9.515625 Z M 2.796875 -11.703125" stroke-linecap="round" />
</g>
		<g transform="matrix(1.33 0 0 1.33 -70.84 -49.06)"  >
<path style="stroke: none; stroke-width: 1; stroke-dasharray: none; stroke-linecap: butt; stroke-dashoffset: 0; stroke-linejoin: miter; stroke-miterlimit: 4; fill: rgb(191,215,234); fill-rule: nonzero; opacity: 1;" vector-effect="non-scaling-stroke"  transform=" translate(2.1, 5.94)" d="M -1.203125 -9.515625 C -1.460938 -9.265625 -1.675781 -9.046875 -1.84375 -8.859375 C -2.488281 -8.128906 -2.664062 -7.4375 -2.375 -6.78125 L 2.328125 -2.65625 L 0.65625 -0.734375 L -6.53125 -7.046875 L -4.953125 -8.859375 L -4.046875 -8.171875 C -4.359375 -9.128906 -4.21875 -9.945312 -3.625 -10.625 C -3.4375 -10.832031 -3.234375 -11.003906 -3.015625 -11.140625 Z M -1.203125 -9.515625" stroke-linecap="round" />
</g>
		<g transform="matrix(1.33 0 0 1.33 -62.27 -56.21)"  >
<path style="stroke: none; stroke-width: 1; stroke-dasharray: none; stroke-linecap: butt; stroke-dashoffset: 0; stroke-linejoin: miter; stroke-miterlimit: 4; fill: rgb(191,215,234); fill-rule: nonzero; opacity: 1;" vector-effect="non-scaling-stroke"  transform=" translate(-0.71, 6.98)" d="M 4.078125 -3.5 C 3.046875 -2.5625 1.914062 -2.113281 0.6875 -2.15625 C -0.539062 -2.195312 -1.640625 -2.738281 -2.609375 -3.78125 L -2.765625 -3.96875 C -3.421875 -4.675781 -3.863281 -5.4375 -4.09375 -6.25 C -4.332031 -7.0625 -4.335938 -7.84375 -4.109375 -8.59375 C -3.890625 -9.351562 -3.460938 -10.023438 -2.828125 -10.609375 C -1.859375 -11.492188 -0.820312 -11.890625 0.28125 -11.796875 C 1.394531 -11.703125 2.460938 -11.09375 3.484375 -9.96875 L 4.1875 -9.203125 L -0.296875 -5.078125 C 0.191406 -4.679688 0.71875 -4.484375 1.28125 -4.484375 C 1.84375 -4.484375 2.359375 -4.695312 2.828125 -5.125 C 3.554688 -5.789062 3.878906 -6.578125 3.796875 -7.484375 L 5.671875 -7.296875 C 5.742188 -6.640625 5.640625 -5.976562 5.359375 -5.3125 C 5.085938 -4.644531 4.660156 -4.039062 4.078125 -3.5 Z M -1.4375 -9.09375 C -1.8125 -8.75 -1.992188 -8.34375 -1.984375 -7.875 C -1.984375 -7.414062 -1.804688 -6.921875 -1.453125 -6.390625 L 1.171875 -8.78125 L 1.03125 -8.9375 C 0.644531 -9.34375 0.238281 -9.5625 -0.1875 -9.59375 C -0.613281 -9.625 -1.03125 -9.457031 -1.4375 -9.09375 Z M -1.4375 -9.09375" stroke-linecap="round" />
</g>
		<g transform="matrix(1.33 0 0 1.33 -52.19 -63.5)"  >
<path style="stroke: none; stroke-width: 1; stroke-dasharray: none; stroke-linecap: butt; stroke-dashoffset: 0; stroke-linejoin: miter; stroke-miterlimit: 4; fill: rgb(191,215,234); fill-rule: nonzero; opacity: 1;" vector-effect="non-scaling-stroke"  transform=" translate(-1.91, 6.52)" d="M 5.328125 -3.75 C 5.097656 -3.863281 4.863281 -4.046875 4.625 -4.296875 C 4.519531 -3.390625 4.0625 -2.648438 3.25 -2.078125 C 2.476562 -1.535156 1.6875 -1.304688 0.875 -1.390625 C 0.0625 -1.484375 -0.582031 -1.867188 -1.0625 -2.546875 C -1.644531 -3.367188 -1.78125 -4.21875 -1.46875 -5.09375 C -1.15625 -5.96875 -0.425781 -6.816406 0.71875 -7.640625 L 1.671875 -8.3125 L 1.359375 -8.765625 C 1.109375 -9.117188 0.816406 -9.34375 0.484375 -9.4375 C 0.148438 -9.53125 -0.210938 -9.4375 -0.609375 -9.15625 C -0.972656 -8.90625 -1.195312 -8.625 -1.28125 -8.3125 C -1.363281 -8.007812 -1.300781 -7.707031 -1.09375 -7.40625 L -3.171875 -5.9375 C -3.484375 -6.394531 -3.632812 -6.914062 -3.625 -7.5 C -3.625 -8.082031 -3.445312 -8.660156 -3.09375 -9.234375 C -2.738281 -9.804688 -2.242188 -10.316406 -1.609375 -10.765625 C -0.640625 -11.441406 0.296875 -11.738281 1.203125 -11.65625 C 2.117188 -11.570312 2.878906 -11.09375 3.484375 -10.21875 L 5.875 -6.8125 C 6.394531 -6.070312 6.882812 -5.582031 7.34375 -5.34375 L 7.4375 -5.21875 Z M 2.578125 -3.984375 C 2.878906 -4.203125 3.113281 -4.46875 3.28125 -4.78125 C 3.445312 -5.101562 3.515625 -5.425781 3.484375 -5.75 L 2.53125 -7.09375 L 1.765625 -6.546875 C 0.710938 -5.816406 0.40625 -5.0625 0.84375 -4.28125 L 0.921875 -4.171875 C 1.109375 -3.898438 1.351562 -3.742188 1.65625 -3.703125 C 1.957031 -3.671875 2.265625 -3.765625 2.578125 -3.984375 Z M 2.578125 -3.984375" stroke-linecap="round" />
</g>
		<g transform="matrix(1.33 0 0 1.33 -44.86 -70.65)"  >
<path style="stroke: none; stroke-width: 1; stroke-dasharray: none; stroke-linecap: butt; stroke-dashoffset: 0; stroke-linejoin: miter; stroke-miterlimit: 4; fill: rgb(191,215,234); fill-rule: nonzero; opacity: 1;" vector-effect="non-scaling-stroke"  transform=" translate(-0.22, 6.89)" d="M -2.265625 -12.359375 L -1.140625 -10.3125 L 0.296875 -11.109375 L 1.21875 -9.46875 L -0.21875 -8.671875 L 2.09375 -4.5 C 2.269531 -4.195312 2.453125 -4.007812 2.640625 -3.9375 C 2.835938 -3.863281 3.109375 -3.921875 3.453125 -4.109375 C 3.691406 -4.242188 3.894531 -4.382812 4.0625 -4.53125 L 5.015625 -2.84375 C 4.648438 -2.46875 4.234375 -2.148438 3.765625 -1.890625 C 2.203125 -1.023438 0.96875 -1.375 0.0625 -2.9375 L -2.4375 -7.4375 L -3.65625 -6.765625 L -4.578125 -8.40625 L -3.359375 -9.078125 L -4.484375 -11.125 Z M -2.265625 -12.359375" stroke-linecap="round" />
</g>
		<g transform="matrix(1.33 0 0 1.33 -35.24 -73.55)"  >
<path style="stroke: none; stroke-width: 1; stroke-dasharray: none; stroke-linecap: butt; stroke-dashoffset: 0; stroke-linejoin: miter; stroke-miterlimit: 4; fill: rgb(191,215,234); fill-rule: nonzero; opacity: 1;" vector-effect="non-scaling-stroke"  transform=" translate(-2.99, 6.42)" d="M 5 -1.953125 C 3.71875 -1.398438 2.503906 -1.347656 1.359375 -1.796875 C 0.222656 -2.242188 -0.625 -3.125 -1.1875 -4.4375 L -1.28125 -4.65625 C -1.65625 -5.539062 -1.820312 -6.40625 -1.78125 -7.25 C -1.75 -8.09375 -1.492188 -8.832031 -1.015625 -9.46875 C -0.546875 -10.113281 0.0820312 -10.609375 0.875 -10.953125 C 2.082031 -11.460938 3.191406 -11.488281 4.203125 -11.03125 C 5.210938 -10.570312 6.015625 -9.640625 6.609375 -8.234375 L 7.015625 -7.296875 L 1.421875 -4.90625 C 1.734375 -4.363281 2.15625 -3.992188 2.6875 -3.796875 C 3.21875 -3.609375 3.78125 -3.640625 4.375 -3.890625 C 5.28125 -4.273438 5.847656 -4.910156 6.078125 -5.796875 L 7.765625 -4.984375 C 7.628906 -4.335938 7.316406 -3.75 6.828125 -3.21875 C 6.347656 -2.6875 5.738281 -2.265625 5 -1.953125 Z M 1.6875 -9.0625 C 1.21875 -8.863281 0.90625 -8.539062 0.75 -8.09375 C 0.59375 -7.65625 0.59375 -7.128906 0.75 -6.515625 L 4.015625 -7.890625 L 3.9375 -8.078125 C 3.707031 -8.597656 3.398438 -8.941406 3.015625 -9.109375 C 2.628906 -9.285156 2.1875 -9.269531 1.6875 -9.0625 Z M 1.6875 -9.0625" stroke-linecap="round" />
</g>
		<g transform="matrix(1.33 0 0 1.33 -15.2 -81.76)"  >
<path style="stroke: none; stroke-width: 1; stroke-dasharray: none; stroke-linecap: butt; stroke-dashoffset: 0; stroke-linejoin: miter; stroke-miterlimit: 4; fill: rgb(191,215,234); fill-rule: nonzero; opacity: 1;" vector-effect="non-scaling-stroke"  transform=" translate(-6.7, 7.7)" d="M 2.328125 -13.46875 L 7.1875 -4.84375 L 8.8125 -14.59375 L 12.25 -15.203125 L 14.46875 -2.53125 L 11.859375 -2.0625 L 11.25 -5.53125 L 10.46875 -11.546875 L 8.6875 -1.515625 L 6.890625 -1.203125 L 1.84375 -10.046875 L 3.125 -4.125 L 3.734375 -0.65625 L 1.140625 -0.203125 L -1.078125 -12.875 Z M 2.328125 -13.46875" stroke-linecap="round" />
</g>
		<g transform="matrix(1.33 0 0 1.33 1.01 -78.44)"  >
<path style="stroke: none; stroke-width: 1; stroke-dasharray: none; stroke-linecap: butt; stroke-dashoffset: 0; stroke-linejoin: miter; stroke-miterlimit: 4; fill: rgb(191,215,234); fill-rule: nonzero; opacity: 1;" vector-effect="non-scaling-stroke"  transform=" translate(-4.5, 2.88)" d="M 4.53125 -3.640625 L 6.265625 -9.59375 L 9.015625 -9.609375 L 5.234375 1.453125 L 5.015625 1.953125 C 4.441406 3.210938 3.5 3.84375 2.1875 3.84375 C 1.8125 3.84375 1.4375 3.789062 1.0625 3.6875 L 1.0625 1.765625 L 1.453125 1.765625 C 1.929688 1.753906 2.285156 1.675781 2.515625 1.53125 C 2.753906 1.382812 2.941406 1.140625 3.078125 0.796875 L 3.375 0.015625 L -0.015625 -9.5625 L 2.734375 -9.578125 Z M 4.53125 -3.640625" stroke-linecap="round" />
</g>
		<g transform="matrix(1.33 0 0 1.33 19.81 -82.29)"  >
<path style="stroke: none; stroke-width: 1; stroke-dasharray: none; stroke-linecap: butt; stroke-dashoffset: 0; stroke-linejoin: miter; stroke-miterlimit: 4; fill: rgb(191,215,234); fill-rule: nonzero; opacity: 1;" vector-effect="non-scaling-stroke"  transform=" translate(-6.82, 5.84)" d="M 4.59375 -3.734375 L 3.734375 0.71875 L 1.140625 0.21875 L 3.578125 -12.40625 L 8.5 -11.453125 C 9.4375 -11.273438 10.234375 -10.941406 10.890625 -10.453125 C 11.546875 -9.960938 12.003906 -9.363281 12.265625 -8.65625 C 12.523438 -7.945312 12.578125 -7.1875 12.421875 -6.375 C 12.191406 -5.132812 11.582031 -4.238281 10.59375 -3.6875 C 9.601562 -3.132812 8.363281 -3.003906 6.875 -3.296875 Z M 5 -5.828125 L 7.328125 -5.375 C 8.015625 -5.238281 8.566406 -5.300781 8.984375 -5.5625 C 9.410156 -5.820312 9.679688 -6.253906 9.796875 -6.859375 C 9.921875 -7.472656 9.835938 -8.007812 9.546875 -8.46875 C 9.253906 -8.925781 8.789062 -9.21875 8.15625 -9.34375 L 5.765625 -9.8125 Z M 5 -5.828125" stroke-linecap="round" />
</g>
		<g transform="matrix(1.33 0 0 1.33 32.99 -75.66)"  >
<path style="stroke: none; stroke-width: 1; stroke-dasharray: none; stroke-linecap: butt; stroke-dashoffset: 0; stroke-linejoin: miter; stroke-miterlimit: 4; fill: rgb(191,215,234); fill-rule: nonzero; opacity: 1;" vector-effect="non-scaling-stroke"  transform=" translate(-6.4, 2.82)" d="M 2.15625 -4.40625 C 2.46875 -5.300781 2.914062 -6.035156 3.5 -6.609375 C 4.09375 -7.191406 4.78125 -7.5625 5.5625 -7.71875 C 6.351562 -7.875 7.175781 -7.800781 8.03125 -7.5 C 9.25 -7.070312 10.113281 -6.347656 10.625 -5.328125 C 11.132812 -4.316406 11.207031 -3.160156 10.84375 -1.859375 L 10.640625 -1.234375 C 10.160156 0.148438 9.382812 1.125 8.3125 1.6875 C 7.25 2.25 6.066406 2.300781 4.765625 1.84375 C 3.460938 1.394531 2.566406 0.617188 2.078125 -0.484375 C 1.597656 -1.585938 1.613281 -2.859375 2.125 -4.296875 Z M 4.515625 -3.375 C 4.210938 -2.519531 4.140625 -1.804688 4.296875 -1.234375 C 4.460938 -0.671875 4.847656 -0.285156 5.453125 -0.078125 C 6.035156 0.128906 6.566406 0.0664062 7.046875 -0.265625 C 7.523438 -0.597656 7.9375 -1.257812 8.28125 -2.25 C 8.570312 -3.09375 8.632812 -3.800781 8.46875 -4.375 C 8.3125 -4.945312 7.9375 -5.335938 7.34375 -5.546875 C 6.75 -5.753906 6.210938 -5.679688 5.734375 -5.328125 C 5.253906 -4.984375 4.847656 -4.332031 4.515625 -3.375 Z M 4.515625 -3.375" stroke-linecap="round" />
</g>
		<g transform="matrix(1.33 0 0 1.33 43.27 -72.19)"  >
<path style="stroke: none; stroke-width: 1; stroke-dasharray: none; stroke-linecap: butt; stroke-dashoffset: 0; stroke-linejoin: miter; stroke-miterlimit: 4; fill: rgb(191,215,234); fill-rule: nonzero; opacity: 1;" vector-effect="non-scaling-stroke"  transform=" translate(-5.41, 3.33)" d="M 8.84375 -3.703125 C 8.539062 -3.890625 8.273438 -4.039062 8.046875 -4.15625 C 7.171875 -4.570312 6.457031 -4.550781 5.90625 -4.09375 L 3.1875 1.53125 L 0.890625 0.421875 L 5.046875 -8.1875 L 7.21875 -7.140625 L 6.78125 -6.09375 C 7.613281 -6.644531 8.441406 -6.726562 9.265625 -6.34375 C 9.515625 -6.21875 9.734375 -6.070312 9.921875 -5.90625 Z M 8.84375 -3.703125" stroke-linecap="round" />
</g>
		<g transform="matrix(1.33 0 0 1.33 50.88 -68.88)"  >
<path style="stroke: none; stroke-width: 1; stroke-dasharray: none; stroke-linecap: butt; stroke-dashoffset: 0; stroke-linejoin: miter; stroke-miterlimit: 4; fill: rgb(191,215,234); fill-rule: nonzero; opacity: 1;" vector-effect="non-scaling-stroke"  transform=" translate(-5.9, 3.32)" d="M 9.5 -8.21875 L 8.3125 -6.1875 L 9.734375 -5.359375 L 8.78125 -3.75 L 7.359375 -4.578125 L 4.953125 -0.46875 C 4.773438 -0.164062 4.703125 0.0820312 4.734375 0.28125 C 4.773438 0.488281 4.960938 0.691406 5.296875 0.890625 C 5.535156 1.023438 5.757812 1.132812 5.96875 1.21875 L 5 2.875 C 4.488281 2.75 4.003906 2.550781 3.546875 2.28125 C 1.992188 1.375 1.664062 0.132812 2.5625 -1.4375 L 5.171875 -5.875 L 3.96875 -6.578125 L 4.921875 -8.1875 L 6.125 -7.484375 L 7.3125 -9.515625 Z M 9.5 -8.21875" stroke-linecap="round" />
</g>
		<g transform="matrix(1.33 0 0 1.33 58.77 -65.33)"  >
<path style="stroke: none; stroke-width: 1; stroke-dasharray: none; stroke-linecap: butt; stroke-dashoffset: 0; stroke-linejoin: miter; stroke-miterlimit: 4; fill: rgb(191,215,234); fill-rule: nonzero; opacity: 1;" vector-effect="non-scaling-stroke"  transform=" translate(-7.24, 3.3)" d="M 1.359375 0.96875 L 5.78125 -5.3125 L 4.625 -6.140625 L 5.71875 -7.671875 L 6.875 -6.84375 L 7.34375 -7.515625 C 7.957031 -8.390625 8.6875 -8.890625 9.53125 -9.015625 C 10.382812 -9.140625 11.257812 -8.882812 12.15625 -8.25 C 12.445312 -8.039062 12.769531 -7.742188 13.125 -7.359375 L 11.953125 -5.75 C 11.804688 -5.925781 11.613281 -6.097656 11.375 -6.265625 C 10.570312 -6.828125 9.914062 -6.738281 9.40625 -6 L 8.96875 -5.375 L 10.53125 -4.28125 L 9.4375 -2.75 L 7.875 -3.84375 L 3.453125 2.4375 Z M 1.359375 0.96875" stroke-linecap="round" />
</g>
		<g transform="matrix(1.33 0 0 1.33 64.56 -57.12)"  >
<path style="stroke: none; stroke-width: 1; stroke-dasharray: none; stroke-linecap: butt; stroke-dashoffset: 0; stroke-linejoin: miter; stroke-miterlimit: 4; fill: rgb(191,215,234); fill-rule: nonzero; opacity: 1;" vector-effect="non-scaling-stroke"  transform=" translate(-6.99, 0.19)" d="M 3.671875 -3.265625 C 4.296875 -3.972656 4.988281 -4.484375 5.75 -4.796875 C 6.507812 -5.109375 7.28125 -5.1875 8.0625 -5.03125 C 8.851562 -4.882812 9.585938 -4.507812 10.265625 -3.90625 C 11.234375 -3.050781 11.757812 -2.054688 11.84375 -0.921875 C 11.9375 0.203125 11.570312 1.300781 10.75 2.375 L 10.328125 2.875 C 9.347656 3.976562 8.257812 4.585938 7.0625 4.703125 C 5.863281 4.828125 4.75 4.429688 3.71875 3.515625 C 2.6875 2.597656 2.15625 1.539062 2.125 0.34375 C 2.09375 -0.851562 2.582031 -2.023438 3.59375 -3.171875 Z M 5.453125 -1.4375 C 4.847656 -0.75 4.515625 -0.113281 4.453125 0.46875 C 4.390625 1.050781 4.597656 1.554688 5.078125 1.984375 C 5.546875 2.398438 6.0625 2.539062 6.625 2.40625 C 7.195312 2.28125 7.832031 1.820312 8.53125 1.03125 C 9.113281 0.375 9.4375 -0.25 9.5 -0.84375 C 9.570312 -1.4375 9.367188 -1.945312 8.890625 -2.375 C 8.421875 -2.789062 7.894531 -2.925781 7.3125 -2.78125 C 6.738281 -2.632812 6.117188 -2.1875 5.453125 -1.4375 Z M 5.453125 -1.4375" stroke-linecap="round" />
</g>
		<g transform="matrix(1.33 0 0 1.33 73.26 -52.36)"  >
<path style="stroke: none; stroke-width: 1; stroke-dasharray: none; stroke-linecap: butt; stroke-dashoffset: 0; stroke-linejoin: miter; stroke-miterlimit: 4; fill: rgb(191,215,234); fill-rule: nonzero; opacity: 1;" vector-effect="non-scaling-stroke"  transform=" translate(-6.61, 2.86)" d="M 2.5 2.6875 L 0.75 0.8125 L 10.71875 -8.40625 L 12.46875 -6.53125 Z M 2.5 2.6875" stroke-linecap="round" />
</g>
		<g transform="matrix(1.33 0 0 1.33 76.79 -47.46)"  >
<path style="stroke: none; stroke-width: 1; stroke-dasharray: none; stroke-linecap: butt; stroke-dashoffset: 0; stroke-linejoin: miter; stroke-miterlimit: 4; fill: rgb(191,215,234); fill-rule: nonzero; opacity: 1;" vector-effect="non-scaling-stroke"  transform=" translate(-6.46, 2.17)" d="M 2.328125 2.84375 L 0.703125 0.859375 L 8.109375 -5.203125 L 9.734375 -3.21875 Z M 9.921875 -6.875 C 10.222656 -7.113281 10.546875 -7.210938 10.890625 -7.171875 C 11.242188 -7.128906 11.5625 -6.941406 11.84375 -6.609375 C 12.113281 -6.265625 12.238281 -5.910156 12.21875 -5.546875 C 12.195312 -5.191406 12.035156 -4.894531 11.734375 -4.65625 C 11.429688 -4.40625 11.097656 -4.300781 10.734375 -4.34375 C 10.378906 -4.394531 10.066406 -4.585938 9.796875 -4.921875 C 9.523438 -5.253906 9.398438 -5.597656 9.421875 -5.953125 C 9.453125 -6.316406 9.617188 -6.625 9.921875 -6.875 Z M 9.921875 -6.875" stroke-linecap="round" />
</g>
		<g transform="matrix(1.33 0 0 1.33 80.71 -38.56)"  >
<path style="stroke: none; stroke-width: 1; stroke-dasharray: none; stroke-linecap: butt; stroke-dashoffset: 0; stroke-linejoin: miter; stroke-miterlimit: 4; fill: rgb(191,215,234); fill-rule: nonzero; opacity: 1;" vector-effect="non-scaling-stroke"  transform=" translate(-6.8, -1.61)" d="M 4.375 -2.21875 C 5.164062 -2.738281 5.96875 -3.050781 6.78125 -3.15625 C 7.601562 -3.269531 8.375 -3.148438 9.09375 -2.796875 C 9.8125 -2.453125 10.421875 -1.90625 10.921875 -1.15625 C 11.640625 -0.0703125 11.894531 1.023438 11.6875 2.140625 C 11.488281 3.265625 10.851562 4.238281 9.78125 5.0625 L 9.25 5.4375 C 8.019531 6.25 6.8125 6.554688 5.625 6.359375 C 4.4375 6.171875 3.457031 5.5 2.6875 4.34375 C 1.925781 3.195312 1.679688 2.039062 1.953125 0.875 C 2.234375 -0.289062 3.003906 -1.296875 4.265625 -2.140625 Z M 5.640625 0.015625 C 4.878906 0.515625 4.390625 1.039062 4.171875 1.59375 C 3.960938 2.15625 4.035156 2.695312 4.390625 3.21875 C 4.734375 3.738281 5.195312 4.007812 5.78125 4.03125 C 6.375 4.050781 7.109375 3.769531 7.984375 3.1875 C 8.722656 2.695312 9.195312 2.171875 9.40625 1.609375 C 9.625 1.054688 9.554688 0.515625 9.203125 -0.015625 C 8.859375 -0.523438 8.390625 -0.785156 7.796875 -0.796875 C 7.203125 -0.816406 6.484375 -0.546875 5.640625 0.015625 Z M 5.640625 0.015625" stroke-linecap="round" />
</g>
</g>
</g>
<g transform="matrix(NaN NaN NaN NaN 0 0)"  >
<g style=""   >
</g>
</g>
</svg>