<svg xmlns="http://www.w3.org/2000/svg" xmlns:xlink="http://www.w3.org/1999/xlink" width="500" zoomAndPan="magnify" viewBox="0 0 375 374.999991" height="500" preserveAspectRatio="xMidYMid meet" version="1.0"><defs><g/><clipPath id="1fc62de688"><path d="M 30 226 L 345.273438 226 L 345.273438 280 L 30 280 Z M 30 226 " clip-rule="nonzero"/></clipPath><clipPath id="597ff80bfe"><path d="M 30 296 L 345.273438 296 L 345.273438 349.136719 L 30 349.136719 Z M 30 296 " clip-rule="nonzero"/></clipPath><clipPath id="69a15fef0e"><path d="M 30 92 L 345.273438 92 L 345.273438 146 L 30 146 Z M 30 92 " clip-rule="nonzero"/></clipPath><clipPath id="11da6abb98"><path d="M 30 162 L 345.273438 162 L 345.273438 216 L 30 216 Z M 30 162 " clip-rule="nonzero"/></clipPath><clipPath id="4a454c6860"><path d="M 29.523438 25.886719 L 345 25.886719 L 345 79 L 29.523438 79 Z M 29.523438 25.886719 " clip-rule="nonzero"/></clipPath></defs><g clip-path="url(#1fc62de688)"><path fill="#BFD7EA" d="M 56.683594 226.648438 C 42.046875 226.648438 30.183594 238.523438 30.183594 253.167969 C 30.183594 267.816406 42.046875 279.6875 56.683594 279.6875 L 318.742188 279.6875 C 333.378906 279.6875 345.246094 267.816406 345.246094 253.167969 C 345.246094 238.523438 333.378906 226.648438 318.742188 226.648438 Z M 56.683594 226.648438 " fill-opacity="1" fill-rule="nonzero"/></g><g clip-path="url(#597ff80bfe)"><path fill="#BFD7EA" d="M 56.730469 296.046875 C 42.09375 296.046875 30.230469 307.917969 30.230469 322.566406 C 30.230469 337.210938 42.09375 349.085938 56.730469 349.085938 L 318.789062 349.085938 C 333.425781 349.085938 345.292969 337.210938 345.292969 322.566406 C 345.292969 307.917969 333.425781 296.046875 318.789062 296.046875 Z M 56.730469 296.046875 " fill-opacity="1" fill-rule="nonzero"/></g><g clip-path="url(#69a15fef0e)"><path fill="#BFD7EA" d="M 56.683594 92.679688 C 42.046875 92.679688 30.183594 104.550781 30.183594 119.199219 C 30.183594 133.84375 42.046875 145.71875 56.683594 145.71875 L 318.742188 145.71875 C 333.378906 145.71875 345.246094 133.84375 345.246094 119.199219 C 345.246094 104.550781 333.378906 92.679688 318.742188 92.679688 Z M 56.683594 92.679688 " fill-opacity="1" fill-rule="nonzero"/></g><g clip-path="url(#11da6abb98)"><path fill="#BFD7EA" d="M 56.730469 162.074219 C 42.09375 162.074219 30.230469 173.949219 30.230469 188.59375 C 30.230469 203.242188 42.09375 215.113281 56.730469 215.113281 L 318.789062 215.113281 C 333.425781 215.113281 345.292969 203.242188 345.292969 188.59375 C 345.292969 173.949219 333.425781 162.074219 318.789062 162.074219 Z M 56.730469 162.074219 " fill-opacity="1" fill-rule="nonzero"/></g><g clip-path="url(#4a454c6860)"><path fill="#BFD7EA" d="M 56.03125 25.910156 C 41.394531 25.910156 29.527344 37.785156 29.527344 52.433594 C 29.527344 67.078125 41.394531 78.953125 56.03125 78.953125 L 318.089844 78.953125 C 332.726562 78.953125 344.589844 67.078125 344.589844 52.433594 C 344.589844 37.785156 332.726562 25.914062 318.089844 25.914062 L 219.6875 25.914062 L 219.082031 25.910156 Z M 56.03125 25.910156 " fill-opacity="1" fill-rule="nonzero"/></g><path fill="#0B3954" d="M 60.683594 171.226562 C 50.863281 171.226562 42.898438 179.195312 42.898438 189.023438 C 42.898438 198.851562 50.863281 206.820312 60.683594 206.820312 C 70.503906 206.820312 78.464844 198.851562 78.464844 189.023438 C 78.464844 179.195312 70.503906 171.226562 60.683594 171.226562 Z M 60.683594 171.226562 " fill-opacity="1" fill-rule="nonzero"/><path fill="#0B3954" d="M 60.601562 305.335938 C 50.78125 305.335938 42.816406 313.300781 42.816406 323.128906 C 42.816406 332.957031 50.78125 340.925781 60.601562 340.925781 C 70.421875 340.925781 78.382812 332.957031 78.382812 323.128906 C 78.382812 313.300781 70.421875 305.335938 60.601562 305.335938 Z M 60.601562 305.335938 " fill-opacity="1" fill-rule="nonzero"/><path fill="#0B3954" d="M 60.632812 33.964844 C 50.8125 33.964844 42.851562 41.929688 42.851562 51.757812 C 42.851562 61.585938 50.8125 69.554688 60.632812 69.554688 C 70.453125 69.554688 78.414062 61.585938 78.414062 51.757812 C 78.414062 41.929688 70.453125 33.964844 60.632812 33.964844 Z M 60.632812 33.964844 " fill-opacity="1" fill-rule="nonzero"/><path fill="#0B3954" d="M 60.691406 102.699219 C 50.871094 102.699219 42.910156 110.667969 42.910156 120.496094 C 42.910156 130.324219 50.871094 138.289062 60.691406 138.289062 C 70.515625 138.289062 78.476562 130.324219 78.476562 120.496094 C 78.476562 110.667969 70.515625 102.699219 60.691406 102.699219 Z M 60.691406 102.699219 " fill-opacity="1" fill-rule="nonzero"/><path fill="#0B3954" d="M 60.609375 236.808594 C 50.789062 236.808594 42.828125 244.773438 42.828125 254.601562 C 42.828125 264.429688 50.789062 272.398438 60.609375 272.398438 C 70.433594 272.398438 78.394531 264.429688 78.394531 254.601562 C 78.394531 244.773438 70.433594 236.808594 60.609375 236.808594 Z M 60.609375 236.808594 " fill-opacity="1" fill-rule="nonzero"/><g fill="#0B3954" fill-opacity="1"><g transform="translate(84.830917, 189.58361)"><g><path d="M 6.4375 -1.34375 L 6.4375 0 L 0.859375 0 L 0.859375 -7.203125 L 6.296875 -7.203125 L 6.296875 -5.875 L 2.515625 -5.875 L 2.515625 -4.296875 L 5.859375 -4.296875 L 5.859375 -3 L 2.515625 -3 L 2.515625 -1.34375 Z M 6.4375 -1.34375 "/></g></g></g><g fill="#0B3954" fill-opacity="1"><g transform="translate(93.382916, 189.58361)"><g><path d="M 0.859375 -7.203125 L 4.125 -7.203125 C 4.90625 -7.203125 5.597656 -7.050781 6.203125 -6.75 C 6.804688 -6.457031 7.273438 -6.039062 7.609375 -5.5 C 7.941406 -4.957031 8.109375 -4.328125 8.109375 -3.609375 C 8.109375 -2.878906 7.941406 -2.242188 7.609375 -1.703125 C 7.273438 -1.160156 6.804688 -0.738281 6.203125 -0.4375 C 5.597656 -0.144531 4.90625 0 4.125 0 L 0.859375 0 Z M 4.046875 -1.375 C 4.765625 -1.375 5.335938 -1.570312 5.765625 -1.96875 C 6.203125 -2.375 6.421875 -2.921875 6.421875 -3.609375 C 6.421875 -4.296875 6.203125 -4.835938 5.765625 -5.234375 C 5.335938 -5.640625 4.765625 -5.84375 4.046875 -5.84375 L 2.515625 -5.84375 L 2.515625 -1.375 Z M 4.046875 -1.375 "/></g></g></g><g fill="#0B3954" fill-opacity="1"><g transform="translate(103.529741, 189.58361)"><g><path d="M 0.859375 -7.203125 L 2.515625 -7.203125 L 2.515625 0 L 0.859375 0 Z M 0.859375 -7.203125 "/></g></g></g><g fill="#0B3954" fill-opacity="1"><g transform="translate(108.552577, 189.58361)"><g><path d="M 2.34375 -5.84375 L 0.046875 -5.84375 L 0.046875 -7.203125 L 6.328125 -7.203125 L 6.328125 -5.84375 L 4.015625 -5.84375 L 4.015625 0 L 2.34375 0 Z M 2.34375 -5.84375 "/></g></g></g><g fill="#0B3954" fill-opacity="1"><g transform="translate(116.559253, 189.58361)"><g><path d="M 6.4375 -1.34375 L 6.4375 0 L 0.859375 0 L 0.859375 -7.203125 L 6.296875 -7.203125 L 6.296875 -5.875 L 2.515625 -5.875 L 2.515625 -4.296875 L 5.859375 -4.296875 L 5.859375 -3 L 2.515625 -3 L 2.515625 -1.34375 Z M 6.4375 -1.34375 "/></g></g></g><g fill="#0B3954" fill-opacity="1"><g transform="translate(125.111251, 189.58361)"><g><path d="M 5.453125 0 L 4.0625 -2.015625 L 2.515625 -2.015625 L 2.515625 0 L 0.859375 0 L 0.859375 -7.203125 L 3.96875 -7.203125 C 4.613281 -7.203125 5.171875 -7.09375 5.640625 -6.875 C 6.109375 -6.664062 6.46875 -6.363281 6.71875 -5.96875 C 6.976562 -5.582031 7.109375 -5.125 7.109375 -4.59375 C 7.109375 -4.0625 6.976562 -3.597656 6.71875 -3.203125 C 6.457031 -2.816406 6.09375 -2.519531 5.625 -2.3125 L 7.234375 0 Z M 5.421875 -4.59375 C 5.421875 -5 5.289062 -5.304688 5.03125 -5.515625 C 4.769531 -5.734375 4.382812 -5.84375 3.875 -5.84375 L 2.515625 -5.84375 L 2.515625 -3.34375 L 3.875 -3.34375 C 4.382812 -3.34375 4.769531 -3.453125 5.03125 -3.671875 C 5.289062 -3.890625 5.421875 -4.195312 5.421875 -4.59375 Z M 5.421875 -4.59375 "/></g></g></g><g fill="#0B3954" fill-opacity="1"><g transform="translate(134.321753, 189.58361)"><g/></g></g><g fill="#0B3954" fill-opacity="1"><g transform="translate(138.881571, 189.58361)"><g><path d="M 7.78125 -7.203125 L 4.671875 0 L 3.015625 0 L -0.09375 -7.203125 L 1.703125 -7.203125 L 3.90625 -2.0625 L 6.125 -7.203125 Z M 7.78125 -7.203125 "/></g></g></g><g fill="#0B3954" fill-opacity="1"><g transform="translate(148.205255, 189.58361)"><g><path d="M 4.34375 0.125 C 3.59375 0.125 2.914062 -0.0351562 2.3125 -0.359375 C 1.71875 -0.679688 1.25 -1.125 0.90625 -1.6875 C 0.570312 -2.257812 0.40625 -2.898438 0.40625 -3.609375 C 0.40625 -4.316406 0.570312 -4.953125 0.90625 -5.515625 C 1.25 -6.078125 1.71875 -6.519531 2.3125 -6.84375 C 2.914062 -7.164062 3.59375 -7.328125 4.34375 -7.328125 C 5.09375 -7.328125 5.765625 -7.164062 6.359375 -6.84375 C 6.960938 -6.519531 7.429688 -6.078125 7.765625 -5.515625 C 8.109375 -4.953125 8.28125 -4.316406 8.28125 -3.609375 C 8.28125 -2.898438 8.109375 -2.257812 7.765625 -1.6875 C 7.429688 -1.125 6.960938 -0.679688 6.359375 -0.359375 C 5.765625 -0.0351562 5.09375 0.125 4.34375 0.125 Z M 4.34375 -1.296875 C 4.769531 -1.296875 5.15625 -1.394531 5.5 -1.59375 C 5.84375 -1.789062 6.109375 -2.0625 6.296875 -2.40625 C 6.492188 -2.757812 6.59375 -3.160156 6.59375 -3.609375 C 6.59375 -4.046875 6.492188 -4.441406 6.296875 -4.796875 C 6.109375 -5.148438 5.84375 -5.421875 5.5 -5.609375 C 5.15625 -5.804688 4.769531 -5.90625 4.34375 -5.90625 C 3.914062 -5.90625 3.53125 -5.804688 3.1875 -5.609375 C 2.84375 -5.421875 2.570312 -5.148438 2.375 -4.796875 C 2.1875 -4.441406 2.09375 -4.046875 2.09375 -3.609375 C 2.09375 -3.160156 2.1875 -2.757812 2.375 -2.40625 C 2.570312 -2.0625 2.84375 -1.789062 3.1875 -1.59375 C 3.53125 -1.394531 3.914062 -1.296875 4.34375 -1.296875 Z M 4.34375 -1.296875 "/></g></g></g><g fill="#0B3954" fill-opacity="1"><g transform="translate(158.537278, 189.58361)"><g><path d="M 2.34375 -5.84375 L 0.046875 -5.84375 L 0.046875 -7.203125 L 6.328125 -7.203125 L 6.328125 -5.84375 L 4.015625 -5.84375 L 4.015625 0 L 2.34375 0 Z M 2.34375 -5.84375 "/></g></g></g><g fill="#0B3954" fill-opacity="1"><g transform="translate(166.543953, 189.58361)"><g><path d="M 5.453125 0 L 4.0625 -2.015625 L 2.515625 -2.015625 L 2.515625 0 L 0.859375 0 L 0.859375 -7.203125 L 3.96875 -7.203125 C 4.613281 -7.203125 5.171875 -7.09375 5.640625 -6.875 C 6.109375 -6.664062 6.46875 -6.363281 6.71875 -5.96875 C 6.976562 -5.582031 7.109375 -5.125 7.109375 -4.59375 C 7.109375 -4.0625 6.976562 -3.597656 6.71875 -3.203125 C 6.457031 -2.816406 6.09375 -2.519531 5.625 -2.3125 L 7.234375 0 Z M 5.421875 -4.59375 C 5.421875 -5 5.289062 -5.304688 5.03125 -5.515625 C 4.769531 -5.734375 4.382812 -5.84375 3.875 -5.84375 L 2.515625 -5.84375 L 2.515625 -3.34375 L 3.875 -3.34375 C 4.382812 -3.34375 4.769531 -3.453125 5.03125 -3.671875 C 5.289062 -3.890625 5.421875 -4.195312 5.421875 -4.59375 Z M 5.421875 -4.59375 "/></g></g></g><g fill="#0B3954" fill-opacity="1"><g transform="translate(175.754455, 189.58361)"><g><path d="M 6.4375 -1.34375 L 6.4375 0 L 0.859375 0 L 0.859375 -7.203125 L 6.296875 -7.203125 L 6.296875 -5.875 L 2.515625 -5.875 L 2.515625 -4.296875 L 5.859375 -4.296875 L 5.859375 -3 L 2.515625 -3 L 2.515625 -1.34375 Z M 6.4375 -1.34375 "/></g></g></g><g fill="#0B3954" fill-opacity="1"><g transform="translate(184.306459, 189.58361)"><g/></g></g><g fill="#0B3954" fill-opacity="1"><g transform="translate(188.866277, 189.58361)"><g><path d="M 3.96875 -7.203125 C 4.613281 -7.203125 5.171875 -7.09375 5.640625 -6.875 C 6.109375 -6.664062 6.46875 -6.363281 6.71875 -5.96875 C 6.976562 -5.582031 7.109375 -5.125 7.109375 -4.59375 C 7.109375 -4.0625 6.976562 -3.597656 6.71875 -3.203125 C 6.46875 -2.804688 6.109375 -2.503906 5.640625 -2.296875 C 5.171875 -2.085938 4.613281 -1.984375 3.96875 -1.984375 L 2.515625 -1.984375 L 2.515625 0 L 0.859375 0 L 0.859375 -7.203125 Z M 3.875 -3.34375 C 4.382812 -3.34375 4.769531 -3.453125 5.03125 -3.671875 C 5.289062 -3.890625 5.421875 -4.195312 5.421875 -4.59375 C 5.421875 -5 5.289062 -5.304688 5.03125 -5.515625 C 4.769531 -5.734375 4.382812 -5.84375 3.875 -5.84375 L 2.515625 -5.84375 L 2.515625 -3.34375 Z M 3.875 -3.34375 "/></g></g></g><g fill="#0B3954" fill-opacity="1"><g transform="translate(198.045914, 189.58361)"><g><path d="M 5.453125 0 L 4.0625 -2.015625 L 2.515625 -2.015625 L 2.515625 0 L 0.859375 0 L 0.859375 -7.203125 L 3.96875 -7.203125 C 4.613281 -7.203125 5.171875 -7.09375 5.640625 -6.875 C 6.109375 -6.664062 6.46875 -6.363281 6.71875 -5.96875 C 6.976562 -5.582031 7.109375 -5.125 7.109375 -4.59375 C 7.109375 -4.0625 6.976562 -3.597656 6.71875 -3.203125 C 6.457031 -2.816406 6.09375 -2.519531 5.625 -2.3125 L 7.234375 0 Z M 5.421875 -4.59375 C 5.421875 -5 5.289062 -5.304688 5.03125 -5.515625 C 4.769531 -5.734375 4.382812 -5.84375 3.875 -5.84375 L 2.515625 -5.84375 L 2.515625 -3.34375 L 3.875 -3.34375 C 4.382812 -3.34375 4.769531 -3.453125 5.03125 -3.671875 C 5.289062 -3.890625 5.421875 -4.195312 5.421875 -4.59375 Z M 5.421875 -4.59375 "/></g></g></g><g fill="#0B3954" fill-opacity="1"><g transform="translate(207.256416, 189.58361)"><g><path d="M 4.34375 0.125 C 3.59375 0.125 2.914062 -0.0351562 2.3125 -0.359375 C 1.71875 -0.679688 1.25 -1.125 0.90625 -1.6875 C 0.570312 -2.257812 0.40625 -2.898438 0.40625 -3.609375 C 0.40625 -4.316406 0.570312 -4.953125 0.90625 -5.515625 C 1.25 -6.078125 1.71875 -6.519531 2.3125 -6.84375 C 2.914062 -7.164062 3.59375 -7.328125 4.34375 -7.328125 C 5.09375 -7.328125 5.765625 -7.164062 6.359375 -6.84375 C 6.960938 -6.519531 7.429688 -6.078125 7.765625 -5.515625 C 8.109375 -4.953125 8.28125 -4.316406 8.28125 -3.609375 C 8.28125 -2.898438 8.109375 -2.257812 7.765625 -1.6875 C 7.429688 -1.125 6.960938 -0.679688 6.359375 -0.359375 C 5.765625 -0.0351562 5.09375 0.125 4.34375 0.125 Z M 4.34375 -1.296875 C 4.769531 -1.296875 5.15625 -1.394531 5.5 -1.59375 C 5.84375 -1.789062 6.109375 -2.0625 6.296875 -2.40625 C 6.492188 -2.757812 6.59375 -3.160156 6.59375 -3.609375 C 6.59375 -4.046875 6.492188 -4.441406 6.296875 -4.796875 C 6.109375 -5.148438 5.84375 -5.421875 5.5 -5.609375 C 5.15625 -5.804688 4.769531 -5.90625 4.34375 -5.90625 C 3.914062 -5.90625 3.53125 -5.804688 3.1875 -5.609375 C 2.84375 -5.421875 2.570312 -5.148438 2.375 -4.796875 C 2.1875 -4.441406 2.09375 -4.046875 2.09375 -3.609375 C 2.09375 -3.160156 2.1875 -2.757812 2.375 -2.40625 C 2.570312 -2.0625 2.84375 -1.789062 3.1875 -1.59375 C 3.53125 -1.394531 3.914062 -1.296875 4.34375 -1.296875 Z M 4.34375 -1.296875 "/></g></g></g><g fill="#0B3954" fill-opacity="1"><g transform="translate(217.588439, 189.58361)"><g><path d="M 2.515625 -5.875 L 2.515625 -3.96875 L 5.859375 -3.96875 L 5.859375 -2.625 L 2.515625 -2.625 L 2.515625 0 L 0.859375 0 L 0.859375 -7.203125 L 6.296875 -7.203125 L 6.296875 -5.875 Z M 2.515625 -5.875 "/></g></g></g><g fill="#0B3954" fill-opacity="1"><g transform="translate(225.81119, 189.58361)"><g><path d="M 0.859375 -7.203125 L 2.515625 -7.203125 L 2.515625 0 L 0.859375 0 Z M 0.859375 -7.203125 "/></g></g></g><g fill="#0B3954" fill-opacity="1"><g transform="translate(230.834024, 189.58361)"><g><path d="M 0.859375 -7.203125 L 2.515625 -7.203125 L 2.515625 -1.359375 L 6.140625 -1.359375 L 6.140625 0 L 0.859375 0 Z M 0.859375 -7.203125 "/></g></g></g><g fill="#0B3954" fill-opacity="1"><g transform="translate(84.830917, 326.021199)"><g><path d="M 3.984375 -7.21875 C 4.617188 -7.21875 5.171875 -7.109375 5.640625 -6.890625 C 6.117188 -6.679688 6.484375 -6.378906 6.734375 -5.984375 C 6.984375 -5.597656 7.109375 -5.132812 7.109375 -4.59375 C 7.109375 -4.070312 6.984375 -3.613281 6.734375 -3.21875 C 6.484375 -2.820312 6.117188 -2.515625 5.640625 -2.296875 C 5.171875 -2.085938 4.617188 -1.984375 3.984375 -1.984375 L 2.53125 -1.984375 L 2.53125 0 L 0.859375 0 L 0.859375 -7.21875 Z M 3.890625 -3.359375 C 4.390625 -3.359375 4.769531 -3.460938 5.03125 -3.671875 C 5.289062 -3.890625 5.421875 -4.195312 5.421875 -4.59375 C 5.421875 -5 5.289062 -5.3125 5.03125 -5.53125 C 4.769531 -5.75 4.390625 -5.859375 3.890625 -5.859375 L 2.53125 -5.859375 L 2.53125 -3.359375 Z M 3.890625 -3.359375 "/></g></g></g><g fill="#0B3954" fill-opacity="1"><g transform="translate(94.032007, 326.021199)"><g><path d="M 5.609375 -1.546875 L 2.265625 -1.546875 L 1.625 0 L -0.09375 0 L 3.125 -7.21875 L 4.78125 -7.21875 L 8 0 L 6.25 0 Z M 5.078125 -2.8125 L 3.9375 -5.578125 L 2.796875 -2.8125 Z M 5.078125 -2.8125 "/></g></g></g><g fill="#0B3954" fill-opacity="1"><g transform="translate(103.58372, 326.021199)"><g><path d="M 5.453125 0 L 4.0625 -2.015625 L 2.53125 -2.015625 L 2.53125 0 L 0.859375 0 L 0.859375 -7.21875 L 3.984375 -7.21875 C 4.617188 -7.21875 5.171875 -7.109375 5.640625 -6.890625 C 6.117188 -6.679688 6.484375 -6.378906 6.734375 -5.984375 C 6.984375 -5.597656 7.109375 -5.132812 7.109375 -4.59375 C 7.109375 -4.0625 6.976562 -3.597656 6.71875 -3.203125 C 6.46875 -2.816406 6.101562 -2.523438 5.625 -2.328125 L 7.25 0 Z M 5.421875 -4.59375 C 5.421875 -5 5.289062 -5.3125 5.03125 -5.53125 C 4.769531 -5.75 4.390625 -5.859375 3.890625 -5.859375 L 2.53125 -5.859375 L 2.53125 -3.34375 L 3.890625 -3.34375 C 4.390625 -3.34375 4.769531 -3.453125 5.03125 -3.671875 C 5.289062 -3.890625 5.421875 -4.195312 5.421875 -4.59375 Z M 5.421875 -4.59375 "/></g></g></g><g fill="#0B3954" fill-opacity="1"><g transform="translate(112.815743, 326.021199)"><g><path d="M 2.34375 -5.859375 L 0.046875 -5.859375 L 0.046875 -7.21875 L 6.328125 -7.21875 L 6.328125 -5.859375 L 4.015625 -5.859375 L 4.015625 0 L 2.34375 0 Z M 2.34375 -5.859375 "/></g></g></g><g fill="#0B3954" fill-opacity="1"><g transform="translate(120.841192, 326.021199)"><g><path d="M 5.609375 -1.546875 L 2.265625 -1.546875 L 1.625 0 L -0.09375 0 L 3.125 -7.21875 L 4.78125 -7.21875 L 8 0 L 6.25 0 Z M 5.078125 -2.8125 L 3.9375 -5.578125 L 2.796875 -2.8125 Z M 5.078125 -2.8125 "/></g></g></g><g fill="#0B3954" fill-opacity="1"><g transform="translate(130.392905, 326.021199)"><g><path d="M 5.734375 -3.71875 L 7.265625 -3.71875 L 7.265625 -0.796875 C 6.867188 -0.492188 6.410156 -0.265625 5.890625 -0.109375 C 5.378906 0.046875 4.863281 0.125 4.34375 0.125 C 3.59375 0.125 2.914062 -0.03125 2.3125 -0.34375 C 1.71875 -0.664062 1.25 -1.109375 0.90625 -1.671875 C 0.570312 -2.242188 0.40625 -2.890625 0.40625 -3.609375 C 0.40625 -4.328125 0.570312 -4.96875 0.90625 -5.53125 C 1.25 -6.101562 1.722656 -6.546875 2.328125 -6.859375 C 2.929688 -7.179688 3.613281 -7.34375 4.375 -7.34375 C 5.007812 -7.34375 5.582031 -7.234375 6.09375 -7.015625 C 6.613281 -6.804688 7.046875 -6.5 7.390625 -6.09375 L 6.328125 -5.109375 C 5.804688 -5.648438 5.179688 -5.921875 4.453125 -5.921875 C 3.992188 -5.921875 3.582031 -5.820312 3.21875 -5.625 C 2.863281 -5.4375 2.585938 -5.164062 2.390625 -4.8125 C 2.191406 -4.46875 2.09375 -4.066406 2.09375 -3.609375 C 2.09375 -3.160156 2.191406 -2.757812 2.390625 -2.40625 C 2.585938 -2.0625 2.863281 -1.789062 3.21875 -1.59375 C 3.570312 -1.394531 3.976562 -1.296875 4.4375 -1.296875 C 4.914062 -1.296875 5.347656 -1.398438 5.734375 -1.609375 Z M 5.734375 -3.71875 "/></g></g></g><g fill="#0B3954" fill-opacity="1"><g transform="translate(139.996174, 326.021199)"><g><path d="M 6.453125 -1.34375 L 6.453125 0 L 0.859375 0 L 0.859375 -7.21875 L 6.3125 -7.21875 L 6.3125 -5.875 L 2.515625 -5.875 L 2.515625 -4.3125 L 5.875 -4.3125 L 5.875 -3.015625 L 2.515625 -3.015625 L 2.515625 -1.34375 Z M 6.453125 -1.34375 "/></g></g></g><g fill="#0B3954" fill-opacity="1"><g transform="translate(148.568193, 326.021199)"><g><path d="M 6.703125 -1.359375 L 6.703125 0 L 0.390625 0 L 0.390625 -1.078125 L 4.359375 -5.859375 L 0.46875 -5.859375 L 0.46875 -7.21875 L 6.546875 -7.21875 L 6.546875 -6.140625 L 2.59375 -1.359375 Z M 6.703125 -1.359375 "/></g></g></g><g fill="#0B3954" fill-opacity="1"><g transform="translate(157.140212, 326.021199)"><g/></g></g><g fill="#0B3954" fill-opacity="1"><g transform="translate(161.710953, 326.021199)"><g><path d="M 7.796875 -7.21875 L 4.671875 0 L 3.015625 0 L -0.09375 -7.21875 L 1.71875 -7.21875 L 3.90625 -2.0625 L 6.140625 -7.21875 Z M 7.796875 -7.21875 "/></g></g></g><g fill="#0B3954" fill-opacity="1"><g transform="translate(171.05641, 326.021199)"><g><path d="M 4.359375 0.125 C 3.609375 0.125 2.929688 -0.0351562 2.328125 -0.359375 C 1.722656 -0.679688 1.25 -1.125 0.90625 -1.6875 C 0.570312 -2.257812 0.40625 -2.898438 0.40625 -3.609375 C 0.40625 -4.316406 0.570312 -4.953125 0.90625 -5.515625 C 1.25 -6.085938 1.722656 -6.535156 2.328125 -6.859375 C 2.929688 -7.179688 3.609375 -7.34375 4.359375 -7.34375 C 5.097656 -7.34375 5.765625 -7.179688 6.359375 -6.859375 C 6.960938 -6.535156 7.4375 -6.085938 7.78125 -5.515625 C 8.125 -4.953125 8.296875 -4.316406 8.296875 -3.609375 C 8.296875 -2.898438 8.125 -2.257812 7.78125 -1.6875 C 7.4375 -1.125 6.960938 -0.679688 6.359375 -0.359375 C 5.765625 -0.0351562 5.097656 0.125 4.359375 0.125 Z M 4.359375 -1.296875 C 4.773438 -1.296875 5.15625 -1.394531 5.5 -1.59375 C 5.84375 -1.789062 6.113281 -2.0625 6.3125 -2.40625 C 6.507812 -2.757812 6.609375 -3.160156 6.609375 -3.609375 C 6.609375 -4.054688 6.507812 -4.453125 6.3125 -4.796875 C 6.113281 -5.148438 5.84375 -5.425781 5.5 -5.625 C 5.15625 -5.820312 4.773438 -5.921875 4.359375 -5.921875 C 3.929688 -5.921875 3.546875 -5.820312 3.203125 -5.625 C 2.859375 -5.425781 2.585938 -5.148438 2.390625 -4.796875 C 2.191406 -4.453125 2.09375 -4.054688 2.09375 -3.609375 C 2.09375 -3.160156 2.191406 -2.757812 2.390625 -2.40625 C 2.585938 -2.0625 2.859375 -1.789062 3.203125 -1.59375 C 3.546875 -1.394531 3.929688 -1.296875 4.359375 -1.296875 Z M 4.359375 -1.296875 "/></g></g></g><g fill="#0B3954" fill-opacity="1"><g transform="translate(181.4125, 326.021199)"><g><path d="M 2.34375 -5.859375 L 0.046875 -5.859375 L 0.046875 -7.21875 L 6.328125 -7.21875 L 6.328125 -5.859375 L 4.015625 -5.859375 L 4.015625 0 L 2.34375 0 Z M 2.34375 -5.859375 "/></g></g></g><g fill="#0B3954" fill-opacity="1"><g transform="translate(189.437943, 326.021199)"><g><path d="M 5.453125 0 L 4.0625 -2.015625 L 2.53125 -2.015625 L 2.53125 0 L 0.859375 0 L 0.859375 -7.21875 L 3.984375 -7.21875 C 4.617188 -7.21875 5.171875 -7.109375 5.640625 -6.890625 C 6.117188 -6.679688 6.484375 -6.378906 6.734375 -5.984375 C 6.984375 -5.597656 7.109375 -5.132812 7.109375 -4.59375 C 7.109375 -4.0625 6.976562 -3.597656 6.71875 -3.203125 C 6.46875 -2.816406 6.101562 -2.523438 5.625 -2.328125 L 7.25 0 Z M 5.421875 -4.59375 C 5.421875 -5 5.289062 -5.3125 5.03125 -5.53125 C 4.769531 -5.75 4.390625 -5.859375 3.890625 -5.859375 L 2.53125 -5.859375 L 2.53125 -3.34375 L 3.890625 -3.34375 C 4.390625 -3.34375 4.769531 -3.453125 5.03125 -3.671875 C 5.289062 -3.890625 5.421875 -4.195312 5.421875 -4.59375 Z M 5.421875 -4.59375 "/></g></g></g><g fill="#0B3954" fill-opacity="1"><g transform="translate(198.66996, 326.021199)"><g><path d="M 6.453125 -1.34375 L 6.453125 0 L 0.859375 0 L 0.859375 -7.21875 L 6.3125 -7.21875 L 6.3125 -5.875 L 2.515625 -5.875 L 2.515625 -4.3125 L 5.875 -4.3125 L 5.875 -3.015625 L 2.515625 -3.015625 L 2.515625 -1.34375 Z M 6.453125 -1.34375 "/></g></g></g><g fill="#0B3954" fill-opacity="1"><g transform="translate(207.241973, 326.021199)"><g/></g></g><g fill="#0B3954" fill-opacity="1"><g transform="translate(211.81272, 326.021199)"><g><path d="M 3.984375 -7.21875 C 4.617188 -7.21875 5.171875 -7.109375 5.640625 -6.890625 C 6.117188 -6.679688 6.484375 -6.378906 6.734375 -5.984375 C 6.984375 -5.597656 7.109375 -5.132812 7.109375 -4.59375 C 7.109375 -4.070312 6.984375 -3.613281 6.734375 -3.21875 C 6.484375 -2.820312 6.117188 -2.515625 5.640625 -2.296875 C 5.171875 -2.085938 4.617188 -1.984375 3.984375 -1.984375 L 2.53125 -1.984375 L 2.53125 0 L 0.859375 0 L 0.859375 -7.21875 Z M 3.890625 -3.359375 C 4.390625 -3.359375 4.769531 -3.460938 5.03125 -3.671875 C 5.289062 -3.890625 5.421875 -4.195312 5.421875 -4.59375 C 5.421875 -5 5.289062 -5.3125 5.03125 -5.53125 C 4.769531 -5.75 4.390625 -5.859375 3.890625 -5.859375 L 2.53125 -5.859375 L 2.53125 -3.359375 Z M 3.890625 -3.359375 "/></g></g></g><g fill="#0B3954" fill-opacity="1"><g transform="translate(221.013815, 326.021199)"><g><path d="M 4.359375 0.125 C 3.609375 0.125 2.929688 -0.0351562 2.328125 -0.359375 C 1.722656 -0.679688 1.25 -1.125 0.90625 -1.6875 C 0.570312 -2.257812 0.40625 -2.898438 0.40625 -3.609375 C 0.40625 -4.316406 0.570312 -4.953125 0.90625 -5.515625 C 1.25 -6.085938 1.722656 -6.535156 2.328125 -6.859375 C 2.929688 -7.179688 3.609375 -7.34375 4.359375 -7.34375 C 5.097656 -7.34375 5.765625 -7.179688 6.359375 -6.859375 C 6.960938 -6.535156 7.4375 -6.085938 7.78125 -5.515625 C 8.125 -4.953125 8.296875 -4.316406 8.296875 -3.609375 C 8.296875 -2.898438 8.125 -2.257812 7.78125 -1.6875 C 7.4375 -1.125 6.960938 -0.679688 6.359375 -0.359375 C 5.765625 -0.0351562 5.097656 0.125 4.359375 0.125 Z M 4.359375 -1.296875 C 4.773438 -1.296875 5.15625 -1.394531 5.5 -1.59375 C 5.84375 -1.789062 6.113281 -2.0625 6.3125 -2.40625 C 6.507812 -2.757812 6.609375 -3.160156 6.609375 -3.609375 C 6.609375 -4.054688 6.507812 -4.453125 6.3125 -4.796875 C 6.113281 -5.148438 5.84375 -5.425781 5.5 -5.625 C 5.15625 -5.820312 4.773438 -5.921875 4.359375 -5.921875 C 3.929688 -5.921875 3.546875 -5.820312 3.203125 -5.625 C 2.859375 -5.425781 2.585938 -5.148438 2.390625 -4.796875 C 2.191406 -4.453125 2.09375 -4.054688 2.09375 -3.609375 C 2.09375 -3.160156 2.191406 -2.757812 2.390625 -2.40625 C 2.585938 -2.0625 2.859375 -1.789062 3.203125 -1.59375 C 3.546875 -1.394531 3.929688 -1.296875 4.359375 -1.296875 Z M 4.359375 -1.296875 "/></g></g></g><g fill="#0B3954" fill-opacity="1"><g transform="translate(231.369917, 326.021199)"><g><path d="M 5.453125 0 L 4.0625 -2.015625 L 2.53125 -2.015625 L 2.53125 0 L 0.859375 0 L 0.859375 -7.21875 L 3.984375 -7.21875 C 4.617188 -7.21875 5.171875 -7.109375 5.640625 -6.890625 C 6.117188 -6.679688 6.484375 -6.378906 6.734375 -5.984375 C 6.984375 -5.597656 7.109375 -5.132812 7.109375 -4.59375 C 7.109375 -4.0625 6.976562 -3.597656 6.71875 -3.203125 C 6.46875 -2.816406 6.101562 -2.523438 5.625 -2.328125 L 7.25 0 Z M 5.421875 -4.59375 C 5.421875 -5 5.289062 -5.3125 5.03125 -5.53125 C 4.769531 -5.75 4.390625 -5.859375 3.890625 -5.859375 L 2.53125 -5.859375 L 2.53125 -3.34375 L 3.890625 -3.34375 C 4.390625 -3.34375 4.769531 -3.453125 5.03125 -3.671875 C 5.289062 -3.890625 5.421875 -4.195312 5.421875 -4.59375 Z M 5.421875 -4.59375 "/></g></g></g><g fill="#0B3954" fill-opacity="1"><g transform="translate(240.601934, 326.021199)"><g><path d="M 2.34375 -5.859375 L 0.046875 -5.859375 L 0.046875 -7.21875 L 6.328125 -7.21875 L 6.328125 -5.859375 L 4.015625 -5.859375 L 4.015625 0 L 2.34375 0 Z M 2.34375 -5.859375 "/></g></g></g><g fill="#0B3954" fill-opacity="1"><g transform="translate(248.627377, 326.021199)"><g><path d="M 2.53125 -5.875 L 2.53125 -3.96875 L 5.875 -3.96875 L 5.875 -2.625 L 2.53125 -2.625 L 2.53125 0 L 0.859375 0 L 0.859375 -7.21875 L 6.3125 -7.21875 L 6.3125 -5.875 Z M 2.53125 -5.875 "/></g></g></g><g fill="#0B3954" fill-opacity="1"><g transform="translate(256.869389, 326.021199)"><g><path d="M 4.359375 0.125 C 3.609375 0.125 2.929688 -0.0351562 2.328125 -0.359375 C 1.722656 -0.679688 1.25 -1.125 0.90625 -1.6875 C 0.570312 -2.257812 0.40625 -2.898438 0.40625 -3.609375 C 0.40625 -4.316406 0.570312 -4.953125 0.90625 -5.515625 C 1.25 -6.085938 1.722656 -6.535156 2.328125 -6.859375 C 2.929688 -7.179688 3.609375 -7.34375 4.359375 -7.34375 C 5.097656 -7.34375 5.765625 -7.179688 6.359375 -6.859375 C 6.960938 -6.535156 7.4375 -6.085938 7.78125 -5.515625 C 8.125 -4.953125 8.296875 -4.316406 8.296875 -3.609375 C 8.296875 -2.898438 8.125 -2.257812 7.78125 -1.6875 C 7.4375 -1.125 6.960938 -0.679688 6.359375 -0.359375 C 5.765625 -0.0351562 5.097656 0.125 4.359375 0.125 Z M 4.359375 -1.296875 C 4.773438 -1.296875 5.15625 -1.394531 5.5 -1.59375 C 5.84375 -1.789062 6.113281 -2.0625 6.3125 -2.40625 C 6.507812 -2.757812 6.609375 -3.160156 6.609375 -3.609375 C 6.609375 -4.054688 6.507812 -4.453125 6.3125 -4.796875 C 6.113281 -5.148438 5.84375 -5.425781 5.5 -5.625 C 5.15625 -5.820312 4.773438 -5.921875 4.359375 -5.921875 C 3.929688 -5.921875 3.546875 -5.820312 3.203125 -5.625 C 2.859375 -5.425781 2.585938 -5.148438 2.390625 -4.796875 C 2.191406 -4.453125 2.09375 -4.054688 2.09375 -3.609375 C 2.09375 -3.160156 2.191406 -2.757812 2.390625 -2.40625 C 2.585938 -2.0625 2.859375 -1.789062 3.203125 -1.59375 C 3.546875 -1.394531 3.929688 -1.296875 4.359375 -1.296875 Z M 4.359375 -1.296875 "/></g></g></g><g fill="#0B3954" fill-opacity="1"><g transform="translate(267.22549, 326.021199)"><g><path d="M 0.859375 -7.21875 L 2.53125 -7.21875 L 2.53125 -1.359375 L 6.140625 -1.359375 L 6.140625 0 L 0.859375 0 Z M 0.859375 -7.21875 "/></g></g></g><g fill="#0B3954" fill-opacity="1"><g transform="translate(275.106578, 326.021199)"><g><path d="M 0.859375 -7.21875 L 2.53125 -7.21875 L 2.53125 0 L 0.859375 0 Z M 0.859375 -7.21875 "/></g></g></g><g fill="#0B3954" fill-opacity="1"><g transform="translate(280.141383, 326.021199)"><g><path d="M 4.359375 0.125 C 3.609375 0.125 2.929688 -0.0351562 2.328125 -0.359375 C 1.722656 -0.679688 1.25 -1.125 0.90625 -1.6875 C 0.570312 -2.257812 0.40625 -2.898438 0.40625 -3.609375 C 0.40625 -4.316406 0.570312 -4.953125 0.90625 -5.515625 C 1.25 -6.085938 1.722656 -6.535156 2.328125 -6.859375 C 2.929688 -7.179688 3.609375 -7.34375 4.359375 -7.34375 C 5.097656 -7.34375 5.765625 -7.179688 6.359375 -6.859375 C 6.960938 -6.535156 7.4375 -6.085938 7.78125 -5.515625 C 8.125 -4.953125 8.296875 -4.316406 8.296875 -3.609375 C 8.296875 -2.898438 8.125 -2.257812 7.78125 -1.6875 C 7.4375 -1.125 6.960938 -0.679688 6.359375 -0.359375 C 5.765625 -0.0351562 5.097656 0.125 4.359375 0.125 Z M 4.359375 -1.296875 C 4.773438 -1.296875 5.15625 -1.394531 5.5 -1.59375 C 5.84375 -1.789062 6.113281 -2.0625 6.3125 -2.40625 C 6.507812 -2.757812 6.609375 -3.160156 6.609375 -3.609375 C 6.609375 -4.054688 6.507812 -4.453125 6.3125 -4.796875 C 6.113281 -5.148438 5.84375 -5.425781 5.5 -5.625 C 5.15625 -5.820312 4.773438 -5.921875 4.359375 -5.921875 C 3.929688 -5.921875 3.546875 -5.820312 3.203125 -5.625 C 2.859375 -5.425781 2.585938 -5.148438 2.390625 -4.796875 C 2.191406 -4.453125 2.09375 -4.054688 2.09375 -3.609375 C 2.09375 -3.160156 2.191406 -2.757812 2.390625 -2.40625 C 2.585938 -2.0625 2.859375 -1.789062 3.203125 -1.59375 C 3.546875 -1.394531 3.929688 -1.296875 4.359375 -1.296875 Z M 4.359375 -1.296875 "/></g></g></g><g fill="#0B3954" fill-opacity="1"><g transform="translate(84.830917, 120.743606)"><g><path d="M 0.859375 -7.203125 L 2.515625 -7.203125 L 2.515625 0 L 0.859375 0 Z M 0.859375 -7.203125 "/></g></g></g><g fill="#0B3954" fill-opacity="1"><g transform="translate(89.853753, 120.743606)"><g><path d="M 7.40625 0 L 7.40625 -4.328125 L 5.28125 -0.765625 L 4.53125 -0.765625 L 2.421875 -4.234375 L 2.421875 0 L 0.859375 0 L 0.859375 -7.203125 L 2.234375 -7.203125 L 4.9375 -2.734375 L 7.59375 -7.203125 L 8.953125 -7.203125 L 8.984375 0 Z M 7.40625 0 "/></g></g></g><g fill="#0B3954" fill-opacity="1"><g transform="translate(101.327875, 120.743606)"><g><path d="M 3.96875 -7.203125 C 4.613281 -7.203125 5.171875 -7.09375 5.640625 -6.875 C 6.109375 -6.664062 6.46875 -6.363281 6.71875 -5.96875 C 6.976562 -5.582031 7.109375 -5.125 7.109375 -4.59375 C 7.109375 -4.0625 6.976562 -3.597656 6.71875 -3.203125 C 6.46875 -2.804688 6.109375 -2.503906 5.640625 -2.296875 C 5.171875 -2.085938 4.613281 -1.984375 3.96875 -1.984375 L 2.515625 -1.984375 L 2.515625 0 L 0.859375 0 L 0.859375 -7.203125 Z M 3.875 -3.34375 C 4.382812 -3.34375 4.769531 -3.453125 5.03125 -3.671875 C 5.289062 -3.890625 5.421875 -4.195312 5.421875 -4.59375 C 5.421875 -5 5.289062 -5.304688 5.03125 -5.515625 C 4.769531 -5.734375 4.382812 -5.84375 3.875 -5.84375 L 2.515625 -5.84375 L 2.515625 -3.34375 Z M 3.875 -3.34375 "/></g></g></g><g fill="#0B3954" fill-opacity="1"><g transform="translate(110.507515, 120.743606)"><g><path d="M 4.34375 0.125 C 3.59375 0.125 2.914062 -0.0351562 2.3125 -0.359375 C 1.71875 -0.679688 1.25 -1.125 0.90625 -1.6875 C 0.570312 -2.257812 0.40625 -2.898438 0.40625 -3.609375 C 0.40625 -4.316406 0.570312 -4.953125 0.90625 -5.515625 C 1.25 -6.078125 1.71875 -6.519531 2.3125 -6.84375 C 2.914062 -7.164062 3.59375 -7.328125 4.34375 -7.328125 C 5.09375 -7.328125 5.765625 -7.164062 6.359375 -6.84375 C 6.960938 -6.519531 7.429688 -6.078125 7.765625 -5.515625 C 8.109375 -4.953125 8.28125 -4.316406 8.28125 -3.609375 C 8.28125 -2.898438 8.109375 -2.257812 7.765625 -1.6875 C 7.429688 -1.125 6.960938 -0.679688 6.359375 -0.359375 C 5.765625 -0.0351562 5.09375 0.125 4.34375 0.125 Z M 4.34375 -1.296875 C 4.769531 -1.296875 5.15625 -1.394531 5.5 -1.59375 C 5.84375 -1.789062 6.109375 -2.0625 6.296875 -2.40625 C 6.492188 -2.757812 6.59375 -3.160156 6.59375 -3.609375 C 6.59375 -4.046875 6.492188 -4.441406 6.296875 -4.796875 C 6.109375 -5.148438 5.84375 -5.421875 5.5 -5.609375 C 5.15625 -5.804688 4.769531 -5.90625 4.34375 -5.90625 C 3.914062 -5.90625 3.53125 -5.804688 3.1875 -5.609375 C 2.84375 -5.421875 2.570312 -5.148438 2.375 -4.796875 C 2.1875 -4.441406 2.09375 -4.046875 2.09375 -3.609375 C 2.09375 -3.160156 2.1875 -2.757812 2.375 -2.40625 C 2.570312 -2.0625 2.84375 -1.789062 3.1875 -1.59375 C 3.53125 -1.394531 3.914062 -1.296875 4.34375 -1.296875 Z M 4.34375 -1.296875 "/></g></g></g><g fill="#0B3954" fill-opacity="1"><g transform="translate(120.839538, 120.743606)"><g><path d="M 5.453125 0 L 4.0625 -2.015625 L 2.515625 -2.015625 L 2.515625 0 L 0.859375 0 L 0.859375 -7.203125 L 3.96875 -7.203125 C 4.613281 -7.203125 5.171875 -7.09375 5.640625 -6.875 C 6.109375 -6.664062 6.46875 -6.363281 6.71875 -5.96875 C 6.976562 -5.582031 7.109375 -5.125 7.109375 -4.59375 C 7.109375 -4.0625 6.976562 -3.597656 6.71875 -3.203125 C 6.457031 -2.816406 6.09375 -2.519531 5.625 -2.3125 L 7.234375 0 Z M 5.421875 -4.59375 C 5.421875 -5 5.289062 -5.304688 5.03125 -5.515625 C 4.769531 -5.734375 4.382812 -5.84375 3.875 -5.84375 L 2.515625 -5.84375 L 2.515625 -3.34375 L 3.875 -3.34375 C 4.382812 -3.34375 4.769531 -3.453125 5.03125 -3.671875 C 5.289062 -3.890625 5.421875 -4.195312 5.421875 -4.59375 Z M 5.421875 -4.59375 "/></g></g></g><g fill="#0B3954" fill-opacity="1"><g transform="translate(130.05004, 120.743606)"><g><path d="M 2.34375 -5.84375 L 0.046875 -5.84375 L 0.046875 -7.203125 L 6.328125 -7.203125 L 6.328125 -5.84375 L 4.015625 -5.84375 L 4.015625 0 L 2.34375 0 Z M 2.34375 -5.84375 "/></g></g></g><g fill="#0B3954" fill-opacity="1"><g transform="translate(138.056715, 120.743606)"><g><path d="M 6.4375 -1.34375 L 6.4375 0 L 0.859375 0 L 0.859375 -7.203125 L 6.296875 -7.203125 L 6.296875 -5.875 L 2.515625 -5.875 L 2.515625 -4.296875 L 5.859375 -4.296875 L 5.859375 -3 L 2.515625 -3 L 2.515625 -1.34375 Z M 6.4375 -1.34375 "/></g></g></g><g fill="#0B3954" fill-opacity="1"><g transform="translate(146.608713, 120.743606)"><g><path d="M 6.6875 -1.359375 L 6.6875 0 L 0.390625 0 L 0.390625 -1.078125 L 4.34375 -5.84375 L 0.46875 -5.84375 L 0.46875 -7.203125 L 6.53125 -7.203125 L 6.53125 -6.125 L 2.59375 -1.359375 Z M 6.6875 -1.359375 "/></g></g></g><g fill="#0B3954" fill-opacity="1"><g transform="translate(155.16071, 120.743606)"><g/></g></g><g fill="#0B3954" fill-opacity="1"><g transform="translate(159.720528, 120.743606)"><g><path d="M 7.78125 -7.203125 L 4.671875 0 L 3.015625 0 L -0.09375 -7.203125 L 1.703125 -7.203125 L 3.90625 -2.0625 L 6.125 -7.203125 Z M 7.78125 -7.203125 "/></g></g></g><g fill="#0B3954" fill-opacity="1"><g transform="translate(169.044212, 120.743606)"><g><path d="M 4.34375 0.125 C 3.59375 0.125 2.914062 -0.0351562 2.3125 -0.359375 C 1.71875 -0.679688 1.25 -1.125 0.90625 -1.6875 C 0.570312 -2.257812 0.40625 -2.898438 0.40625 -3.609375 C 0.40625 -4.316406 0.570312 -4.953125 0.90625 -5.515625 C 1.25 -6.078125 1.71875 -6.519531 2.3125 -6.84375 C 2.914062 -7.164062 3.59375 -7.328125 4.34375 -7.328125 C 5.09375 -7.328125 5.765625 -7.164062 6.359375 -6.84375 C 6.960938 -6.519531 7.429688 -6.078125 7.765625 -5.515625 C 8.109375 -4.953125 8.28125 -4.316406 8.28125 -3.609375 C 8.28125 -2.898438 8.109375 -2.257812 7.765625 -1.6875 C 7.429688 -1.125 6.960938 -0.679688 6.359375 -0.359375 C 5.765625 -0.0351562 5.09375 0.125 4.34375 0.125 Z M 4.34375 -1.296875 C 4.769531 -1.296875 5.15625 -1.394531 5.5 -1.59375 C 5.84375 -1.789062 6.109375 -2.0625 6.296875 -2.40625 C 6.492188 -2.757812 6.59375 -3.160156 6.59375 -3.609375 C 6.59375 -4.046875 6.492188 -4.441406 6.296875 -4.796875 C 6.109375 -5.148438 5.84375 -5.421875 5.5 -5.609375 C 5.15625 -5.804688 4.769531 -5.90625 4.34375 -5.90625 C 3.914062 -5.90625 3.53125 -5.804688 3.1875 -5.609375 C 2.84375 -5.421875 2.570312 -5.148438 2.375 -4.796875 C 2.1875 -4.441406 2.09375 -4.046875 2.09375 -3.609375 C 2.09375 -3.160156 2.1875 -2.757812 2.375 -2.40625 C 2.570312 -2.0625 2.84375 -1.789062 3.1875 -1.59375 C 3.53125 -1.394531 3.914062 -1.296875 4.34375 -1.296875 Z M 4.34375 -1.296875 "/></g></g></g><g fill="#0B3954" fill-opacity="1"><g transform="translate(179.376235, 120.743606)"><g><path d="M 2.34375 -5.84375 L 0.046875 -5.84375 L 0.046875 -7.203125 L 6.328125 -7.203125 L 6.328125 -5.84375 L 4.015625 -5.84375 L 4.015625 0 L 2.34375 0 Z M 2.34375 -5.84375 "/></g></g></g><g fill="#0B3954" fill-opacity="1"><g transform="translate(187.382916, 120.743606)"><g><path d="M 5.453125 0 L 4.0625 -2.015625 L 2.515625 -2.015625 L 2.515625 0 L 0.859375 0 L 0.859375 -7.203125 L 3.96875 -7.203125 C 4.613281 -7.203125 5.171875 -7.09375 5.640625 -6.875 C 6.109375 -6.664062 6.46875 -6.363281 6.71875 -5.96875 C 6.976562 -5.582031 7.109375 -5.125 7.109375 -4.59375 C 7.109375 -4.0625 6.976562 -3.597656 6.71875 -3.203125 C 6.457031 -2.816406 6.09375 -2.519531 5.625 -2.3125 L 7.234375 0 Z M 5.421875 -4.59375 C 5.421875 -5 5.289062 -5.304688 5.03125 -5.515625 C 4.769531 -5.734375 4.382812 -5.84375 3.875 -5.84375 L 2.515625 -5.84375 L 2.515625 -3.34375 L 3.875 -3.34375 C 4.382812 -3.34375 4.769531 -3.453125 5.03125 -3.671875 C 5.289062 -3.890625 5.421875 -4.195312 5.421875 -4.59375 Z M 5.421875 -4.59375 "/></g></g></g><g fill="#0B3954" fill-opacity="1"><g transform="translate(196.593418, 120.743606)"><g><path d="M 6.4375 -1.34375 L 6.4375 0 L 0.859375 0 L 0.859375 -7.203125 L 6.296875 -7.203125 L 6.296875 -5.875 L 2.515625 -5.875 L 2.515625 -4.296875 L 5.859375 -4.296875 L 5.859375 -3 L 2.515625 -3 L 2.515625 -1.34375 Z M 6.4375 -1.34375 "/></g></g></g><g fill="#0B3954" fill-opacity="1"><g transform="translate(205.145416, 120.743606)"><g/></g></g><g fill="#0B3954" fill-opacity="1"><g transform="translate(209.705234, 120.743606)"><g><path d="M 4.296875 0.125 C 3.566406 0.125 2.90625 -0.03125 2.3125 -0.34375 C 1.71875 -0.664062 1.25 -1.109375 0.90625 -1.671875 C 0.570312 -2.242188 0.40625 -2.890625 0.40625 -3.609375 C 0.40625 -4.316406 0.570312 -4.953125 0.90625 -5.515625 C 1.25 -6.085938 1.71875 -6.53125 2.3125 -6.84375 C 2.90625 -7.164062 3.570312 -7.328125 4.3125 -7.328125 C 4.9375 -7.328125 5.5 -7.21875 6 -7 C 6.507812 -6.78125 6.9375 -6.460938 7.28125 -6.046875 L 6.203125 -5.0625 C 5.722656 -5.625 5.117188 -5.90625 4.390625 -5.90625 C 3.953125 -5.90625 3.554688 -5.804688 3.203125 -5.609375 C 2.847656 -5.421875 2.570312 -5.148438 2.375 -4.796875 C 2.1875 -4.441406 2.09375 -4.046875 2.09375 -3.609375 C 2.09375 -3.160156 2.1875 -2.757812 2.375 -2.40625 C 2.570312 -2.0625 2.847656 -1.789062 3.203125 -1.59375 C 3.554688 -1.394531 3.953125 -1.296875 4.390625 -1.296875 C 5.117188 -1.296875 5.722656 -1.582031 6.203125 -2.15625 L 7.28125 -1.15625 C 6.9375 -0.738281 6.507812 -0.421875 6 -0.203125 C 5.488281 0.015625 4.921875 0.125 4.296875 0.125 Z M 4.296875 0.125 "/></g></g></g><g fill="#0B3954" fill-opacity="1"><g transform="translate(218.895159, 120.743606)"><g><path d="M 7.78125 -7.203125 L 4.671875 0 L 3.015625 0 L -0.09375 -7.203125 L 1.703125 -7.203125 L 3.90625 -2.0625 L 6.125 -7.203125 Z M 7.78125 -7.203125 "/></g></g></g><g fill="#0B3954" fill-opacity="1"><g transform="translate(84.830917, 51.9036)"><g><path d="M 0.859375 -7.203125 L 2.515625 -7.203125 L 2.515625 0 L 0.859375 0 Z M 0.859375 -7.203125 "/></g></g></g><g fill="#0B3954" fill-opacity="1"><g transform="translate(89.853753, 51.9036)"><g><path d="M 7.46875 -7.203125 L 7.46875 0 L 6.09375 0 L 2.5 -4.375 L 2.5 0 L 0.859375 0 L 0.859375 -7.203125 L 2.234375 -7.203125 L 5.8125 -2.828125 L 5.8125 -7.203125 Z M 7.46875 -7.203125 "/></g></g></g><g fill="#0B3954" fill-opacity="1"><g transform="translate(99.815366, 51.9036)"><g><path d="M 3.21875 0.125 C 2.65625 0.125 2.101562 0.046875 1.5625 -0.109375 C 1.03125 -0.265625 0.601562 -0.460938 0.28125 -0.703125 L 0.859375 -1.96875 C 1.160156 -1.738281 1.523438 -1.554688 1.953125 -1.421875 C 2.378906 -1.285156 2.804688 -1.21875 3.234375 -1.21875 C 3.703125 -1.21875 4.050781 -1.285156 4.28125 -1.421875 C 4.507812 -1.566406 4.625 -1.753906 4.625 -1.984375 C 4.625 -2.160156 4.554688 -2.300781 4.421875 -2.40625 C 4.285156 -2.519531 4.113281 -2.613281 3.90625 -2.6875 C 3.695312 -2.757812 3.414062 -2.832031 3.0625 -2.90625 C 2.507812 -3.039062 2.054688 -3.171875 1.703125 -3.296875 C 1.359375 -3.429688 1.0625 -3.640625 0.8125 -3.921875 C 0.5625 -4.210938 0.4375 -4.601562 0.4375 -5.09375 C 0.4375 -5.507812 0.546875 -5.882812 0.765625 -6.21875 C 0.992188 -6.5625 1.335938 -6.832031 1.796875 -7.03125 C 2.253906 -7.226562 2.8125 -7.328125 3.46875 -7.328125 C 3.925781 -7.328125 4.375 -7.269531 4.8125 -7.15625 C 5.257812 -7.050781 5.644531 -6.894531 5.96875 -6.6875 L 5.453125 -5.421875 C 4.785156 -5.804688 4.117188 -6 3.453125 -6 C 2.992188 -6 2.648438 -5.921875 2.421875 -5.765625 C 2.203125 -5.617188 2.09375 -5.421875 2.09375 -5.171875 C 2.09375 -4.921875 2.21875 -4.734375 2.46875 -4.609375 C 2.726562 -4.492188 3.125 -4.378906 3.65625 -4.265625 C 4.207031 -4.128906 4.65625 -3.992188 5 -3.859375 C 5.351562 -3.734375 5.65625 -3.53125 5.90625 -3.25 C 6.15625 -2.96875 6.28125 -2.585938 6.28125 -2.109375 C 6.28125 -1.703125 6.164062 -1.328125 5.9375 -0.984375 C 5.707031 -0.640625 5.363281 -0.367188 4.90625 -0.171875 C 4.445312 0.0234375 3.882812 0.125 3.21875 0.125 Z M 3.21875 0.125 "/></g></g></g><g fill="#0B3954" fill-opacity="1"><g transform="translate(108.027831, 51.9036)"><g><path d="M 4.296875 0.125 C 3.566406 0.125 2.90625 -0.03125 2.3125 -0.34375 C 1.71875 -0.664062 1.25 -1.109375 0.90625 -1.671875 C 0.570312 -2.242188 0.40625 -2.890625 0.40625 -3.609375 C 0.40625 -4.316406 0.570312 -4.953125 0.90625 -5.515625 C 1.25 -6.085938 1.71875 -6.53125 2.3125 -6.84375 C 2.90625 -7.164062 3.570312 -7.328125 4.3125 -7.328125 C 4.9375 -7.328125 5.5 -7.21875 6 -7 C 6.507812 -6.78125 6.9375 -6.460938 7.28125 -6.046875 L 6.203125 -5.0625 C 5.722656 -5.625 5.117188 -5.90625 4.390625 -5.90625 C 3.953125 -5.90625 3.554688 -5.804688 3.203125 -5.609375 C 2.847656 -5.421875 2.570312 -5.148438 2.375 -4.796875 C 2.1875 -4.441406 2.09375 -4.046875 2.09375 -3.609375 C 2.09375 -3.160156 2.1875 -2.757812 2.375 -2.40625 C 2.570312 -2.0625 2.847656 -1.789062 3.203125 -1.59375 C 3.554688 -1.394531 3.953125 -1.296875 4.390625 -1.296875 C 5.117188 -1.296875 5.722656 -1.582031 6.203125 -2.15625 L 7.28125 -1.15625 C 6.9375 -0.738281 6.507812 -0.421875 6 -0.203125 C 5.488281 0.015625 4.921875 0.125 4.296875 0.125 Z M 4.296875 0.125 "/></g></g></g><g fill="#0B3954" fill-opacity="1"><g transform="translate(117.217758, 51.9036)"><g><path d="M 5.453125 0 L 4.0625 -2.015625 L 2.515625 -2.015625 L 2.515625 0 L 0.859375 0 L 0.859375 -7.203125 L 3.96875 -7.203125 C 4.613281 -7.203125 5.171875 -7.09375 5.640625 -6.875 C 6.109375 -6.664062 6.46875 -6.363281 6.71875 -5.96875 C 6.976562 -5.582031 7.109375 -5.125 7.109375 -4.59375 C 7.109375 -4.0625 6.976562 -3.597656 6.71875 -3.203125 C 6.457031 -2.816406 6.09375 -2.519531 5.625 -2.3125 L 7.234375 0 Z M 5.421875 -4.59375 C 5.421875 -5 5.289062 -5.304688 5.03125 -5.515625 C 4.769531 -5.734375 4.382812 -5.84375 3.875 -5.84375 L 2.515625 -5.84375 L 2.515625 -3.34375 L 3.875 -3.34375 C 4.382812 -3.34375 4.769531 -3.453125 5.03125 -3.671875 C 5.289062 -3.890625 5.421875 -4.195312 5.421875 -4.59375 Z M 5.421875 -4.59375 "/></g></g></g><g fill="#0B3954" fill-opacity="1"><g transform="translate(126.42826, 51.9036)"><g><path d="M 0.859375 -7.203125 L 2.515625 -7.203125 L 2.515625 0 L 0.859375 0 Z M 0.859375 -7.203125 "/></g></g></g><g fill="#0B3954" fill-opacity="1"><g transform="translate(131.451094, 51.9036)"><g><path d="M 7.78125 -7.203125 L 4.671875 0 L 3.015625 0 L -0.09375 -7.203125 L 1.703125 -7.203125 L 3.90625 -2.0625 L 6.125 -7.203125 Z M 7.78125 -7.203125 "/></g></g></g><g fill="#0B3954" fill-opacity="1"><g transform="translate(140.774778, 51.9036)"><g><path d="M 6.4375 -1.34375 L 6.4375 0 L 0.859375 0 L 0.859375 -7.203125 L 6.296875 -7.203125 L 6.296875 -5.875 L 2.515625 -5.875 L 2.515625 -4.296875 L 5.859375 -4.296875 L 5.859375 -3 L 2.515625 -3 L 2.515625 -1.34375 Z M 6.4375 -1.34375 "/></g></g></g><g fill="#0B3954" fill-opacity="1"><g transform="translate(149.326776, 51.9036)"><g><path d="M 6.6875 -1.359375 L 6.6875 0 L 0.390625 0 L 0.390625 -1.078125 L 4.34375 -5.84375 L 0.46875 -5.84375 L 0.46875 -7.203125 L 6.53125 -7.203125 L 6.53125 -6.125 L 2.59375 -1.359375 Z M 6.6875 -1.359375 "/></g></g></g><g fill="#0B3954" fill-opacity="1"><g transform="translate(157.878773, 51.9036)"><g/></g></g><g fill="#0B3954" fill-opacity="1"><g transform="translate(162.438591, 51.9036)"><g><path d="M 7.78125 -7.203125 L 4.671875 0 L 3.015625 0 L -0.09375 -7.203125 L 1.703125 -7.203125 L 3.90625 -2.0625 L 6.125 -7.203125 Z M 7.78125 -7.203125 "/></g></g></g><g fill="#0B3954" fill-opacity="1"><g transform="translate(171.762275, 51.9036)"><g><path d="M 4.34375 0.125 C 3.59375 0.125 2.914062 -0.0351562 2.3125 -0.359375 C 1.71875 -0.679688 1.25 -1.125 0.90625 -1.6875 C 0.570312 -2.257812 0.40625 -2.898438 0.40625 -3.609375 C 0.40625 -4.316406 0.570312 -4.953125 0.90625 -5.515625 C 1.25 -6.078125 1.71875 -6.519531 2.3125 -6.84375 C 2.914062 -7.164062 3.59375 -7.328125 4.34375 -7.328125 C 5.09375 -7.328125 5.765625 -7.164062 6.359375 -6.84375 C 6.960938 -6.519531 7.429688 -6.078125 7.765625 -5.515625 C 8.109375 -4.953125 8.28125 -4.316406 8.28125 -3.609375 C 8.28125 -2.898438 8.109375 -2.257812 7.765625 -1.6875 C 7.429688 -1.125 6.960938 -0.679688 6.359375 -0.359375 C 5.765625 -0.0351562 5.09375 0.125 4.34375 0.125 Z M 4.34375 -1.296875 C 4.769531 -1.296875 5.15625 -1.394531 5.5 -1.59375 C 5.84375 -1.789062 6.109375 -2.0625 6.296875 -2.40625 C 6.492188 -2.757812 6.59375 -3.160156 6.59375 -3.609375 C 6.59375 -4.046875 6.492188 -4.441406 6.296875 -4.796875 C 6.109375 -5.148438 5.84375 -5.421875 5.5 -5.609375 C 5.15625 -5.804688 4.769531 -5.90625 4.34375 -5.90625 C 3.914062 -5.90625 3.53125 -5.804688 3.1875 -5.609375 C 2.84375 -5.421875 2.570312 -5.148438 2.375 -4.796875 C 2.1875 -4.441406 2.09375 -4.046875 2.09375 -3.609375 C 2.09375 -3.160156 2.1875 -2.757812 2.375 -2.40625 C 2.570312 -2.0625 2.84375 -1.789062 3.1875 -1.59375 C 3.53125 -1.394531 3.914062 -1.296875 4.34375 -1.296875 Z M 4.34375 -1.296875 "/></g></g></g><g fill="#0B3954" fill-opacity="1"><g transform="translate(182.094304, 51.9036)"><g><path d="M 4.0625 0.125 C 3.03125 0.125 2.226562 -0.15625 1.65625 -0.71875 C 1.082031 -1.289062 0.796875 -2.109375 0.796875 -3.171875 L 0.796875 -7.203125 L 2.46875 -7.203125 L 2.46875 -3.234375 C 2.46875 -1.941406 3 -1.296875 4.0625 -1.296875 C 4.582031 -1.296875 4.976562 -1.453125 5.25 -1.765625 C 5.53125 -2.078125 5.671875 -2.566406 5.671875 -3.234375 L 5.671875 -7.203125 L 7.328125 -7.203125 L 7.328125 -3.171875 C 7.328125 -2.109375 7.035156 -1.289062 6.453125 -0.71875 C 5.878906 -0.15625 5.082031 0.125 4.0625 0.125 Z M 4.0625 0.125 "/></g></g></g><g fill="#0B3954" fill-opacity="1"><g transform="translate(191.85014, 51.9036)"><g><path d="M 3.21875 0.125 C 2.65625 0.125 2.101562 0.046875 1.5625 -0.109375 C 1.03125 -0.265625 0.601562 -0.460938 0.28125 -0.703125 L 0.859375 -1.96875 C 1.160156 -1.738281 1.523438 -1.554688 1.953125 -1.421875 C 2.378906 -1.285156 2.804688 -1.21875 3.234375 -1.21875 C 3.703125 -1.21875 4.050781 -1.285156 4.28125 -1.421875 C 4.507812 -1.566406 4.625 -1.753906 4.625 -1.984375 C 4.625 -2.160156 4.554688 -2.300781 4.421875 -2.40625 C 4.285156 -2.519531 4.113281 -2.613281 3.90625 -2.6875 C 3.695312 -2.757812 3.414062 -2.832031 3.0625 -2.90625 C 2.507812 -3.039062 2.054688 -3.171875 1.703125 -3.296875 C 1.359375 -3.429688 1.0625 -3.640625 0.8125 -3.921875 C 0.5625 -4.210938 0.4375 -4.601562 0.4375 -5.09375 C 0.4375 -5.507812 0.546875 -5.882812 0.765625 -6.21875 C 0.992188 -6.5625 1.335938 -6.832031 1.796875 -7.03125 C 2.253906 -7.226562 2.8125 -7.328125 3.46875 -7.328125 C 3.925781 -7.328125 4.375 -7.269531 4.8125 -7.15625 C 5.257812 -7.050781 5.644531 -6.894531 5.96875 -6.6875 L 5.453125 -5.421875 C 4.785156 -5.804688 4.117188 -6 3.453125 -6 C 2.992188 -6 2.648438 -5.921875 2.421875 -5.765625 C 2.203125 -5.617188 2.09375 -5.421875 2.09375 -5.171875 C 2.09375 -4.921875 2.21875 -4.734375 2.46875 -4.609375 C 2.726562 -4.492188 3.125 -4.378906 3.65625 -4.265625 C 4.207031 -4.128906 4.65625 -3.992188 5 -3.859375 C 5.351562 -3.734375 5.65625 -3.53125 5.90625 -3.25 C 6.15625 -2.96875 6.28125 -2.585938 6.28125 -2.109375 C 6.28125 -1.703125 6.164062 -1.328125 5.9375 -0.984375 C 5.707031 -0.640625 5.363281 -0.367188 4.90625 -0.171875 C 4.445312 0.0234375 3.882812 0.125 3.21875 0.125 Z M 3.21875 0.125 "/></g></g></g><g fill="#0B3954" fill-opacity="1"><g transform="translate(84.830917, 258.41424)"><g><path d="M 4.3125 0.125 C 3.570312 0.125 2.90625 -0.03125 2.3125 -0.34375 C 1.71875 -0.664062 1.25 -1.109375 0.90625 -1.671875 C 0.570312 -2.242188 0.40625 -2.890625 0.40625 -3.609375 C 0.40625 -4.328125 0.570312 -4.96875 0.90625 -5.53125 C 1.25 -6.101562 1.71875 -6.546875 2.3125 -6.859375 C 2.90625 -7.179688 3.578125 -7.34375 4.328125 -7.34375 C 4.953125 -7.34375 5.515625 -7.234375 6.015625 -7.015625 C 6.523438 -6.796875 6.953125 -6.476562 7.296875 -6.0625 L 6.21875 -5.078125 C 5.726562 -5.640625 5.125 -5.921875 4.40625 -5.921875 C 3.957031 -5.921875 3.554688 -5.820312 3.203125 -5.625 C 2.859375 -5.425781 2.585938 -5.148438 2.390625 -4.796875 C 2.191406 -4.453125 2.09375 -4.054688 2.09375 -3.609375 C 2.09375 -3.160156 2.191406 -2.757812 2.390625 -2.40625 C 2.585938 -2.0625 2.859375 -1.789062 3.203125 -1.59375 C 3.554688 -1.394531 3.957031 -1.296875 4.40625 -1.296875 C 5.125 -1.296875 5.726562 -1.582031 6.21875 -2.15625 L 7.296875 -1.171875 C 6.953125 -0.742188 6.523438 -0.421875 6.015625 -0.203125 C 5.503906 0.015625 4.9375 0.125 4.3125 0.125 Z M 4.3125 0.125 "/></g></g></g><g fill="#0B3954" fill-opacity="1"><g transform="translate(94.042318, 258.41424)"><g><path d="M 7.484375 -7.21875 L 7.484375 0 L 5.8125 0 L 5.8125 -2.953125 L 2.53125 -2.953125 L 2.53125 0 L 0.859375 0 L 0.859375 -7.21875 L 2.53125 -7.21875 L 2.53125 -4.375 L 5.8125 -4.375 L 5.8125 -7.21875 Z M 7.484375 -7.21875 "/></g></g></g><g fill="#0B3954" fill-opacity="1"><g transform="translate(104.027156, 258.41424)"><g><path d="M 4.359375 0.125 C 3.609375 0.125 2.929688 -0.0351562 2.328125 -0.359375 C 1.722656 -0.679688 1.25 -1.125 0.90625 -1.6875 C 0.570312 -2.257812 0.40625 -2.898438 0.40625 -3.609375 C 0.40625 -4.316406 0.570312 -4.953125 0.90625 -5.515625 C 1.25 -6.085938 1.722656 -6.535156 2.328125 -6.859375 C 2.929688 -7.179688 3.609375 -7.34375 4.359375 -7.34375 C 5.097656 -7.34375 5.765625 -7.179688 6.359375 -6.859375 C 6.960938 -6.535156 7.4375 -6.085938 7.78125 -5.515625 C 8.125 -4.953125 8.296875 -4.316406 8.296875 -3.609375 C 8.296875 -2.898438 8.125 -2.257812 7.78125 -1.6875 C 7.4375 -1.125 6.960938 -0.679688 6.359375 -0.359375 C 5.765625 -0.0351562 5.097656 0.125 4.359375 0.125 Z M 4.359375 -1.296875 C 4.773438 -1.296875 5.15625 -1.394531 5.5 -1.59375 C 5.84375 -1.789062 6.113281 -2.0625 6.3125 -2.40625 C 6.507812 -2.757812 6.609375 -3.160156 6.609375 -3.609375 C 6.609375 -4.054688 6.507812 -4.453125 6.3125 -4.796875 C 6.113281 -5.148438 5.84375 -5.425781 5.5 -5.625 C 5.15625 -5.820312 4.773438 -5.921875 4.359375 -5.921875 C 3.929688 -5.921875 3.546875 -5.820312 3.203125 -5.625 C 2.859375 -5.425781 2.585938 -5.148438 2.390625 -4.796875 C 2.191406 -4.453125 2.09375 -4.054688 2.09375 -3.609375 C 2.09375 -3.160156 2.191406 -2.757812 2.390625 -2.40625 C 2.585938 -2.0625 2.859375 -1.789062 3.203125 -1.59375 C 3.546875 -1.394531 3.929688 -1.296875 4.359375 -1.296875 Z M 4.359375 -1.296875 "/></g></g></g><g fill="#0B3954" fill-opacity="1"><g transform="translate(114.383251, 258.41424)"><g><path d="M 0.859375 -7.21875 L 2.53125 -7.21875 L 2.53125 0 L 0.859375 0 Z M 0.859375 -7.21875 "/></g></g></g><g fill="#0B3954" fill-opacity="1"><g transform="translate(119.418062, 258.41424)"><g><path d="M 3.234375 0.125 C 2.660156 0.125 2.109375 0.046875 1.578125 -0.109375 C 1.046875 -0.265625 0.613281 -0.46875 0.28125 -0.71875 L 0.859375 -1.96875 C 1.160156 -1.738281 1.523438 -1.554688 1.953125 -1.421875 C 2.378906 -1.285156 2.804688 -1.21875 3.234375 -1.21875 C 3.710938 -1.21875 4.0625 -1.285156 4.28125 -1.421875 C 4.507812 -1.566406 4.625 -1.753906 4.625 -1.984375 C 4.625 -2.160156 4.554688 -2.304688 4.421875 -2.421875 C 4.296875 -2.535156 4.125 -2.625 3.90625 -2.6875 C 3.695312 -2.757812 3.414062 -2.835938 3.0625 -2.921875 C 2.507812 -3.046875 2.054688 -3.171875 1.703125 -3.296875 C 1.359375 -3.429688 1.0625 -3.644531 0.8125 -3.9375 C 0.5625 -4.226562 0.4375 -4.613281 0.4375 -5.09375 C 0.4375 -5.507812 0.546875 -5.890625 0.765625 -6.234375 C 0.992188 -6.578125 1.335938 -6.847656 1.796875 -7.046875 C 2.253906 -7.242188 2.8125 -7.34375 3.46875 -7.34375 C 3.9375 -7.34375 4.390625 -7.285156 4.828125 -7.171875 C 5.265625 -7.066406 5.648438 -6.910156 5.984375 -6.703125 L 5.46875 -5.4375 C 4.800781 -5.8125 4.132812 -6 3.46875 -6 C 3 -6 2.648438 -5.921875 2.421875 -5.765625 C 2.203125 -5.617188 2.09375 -5.421875 2.09375 -5.171875 C 2.09375 -4.929688 2.21875 -4.75 2.46875 -4.625 C 2.726562 -4.5 3.125 -4.378906 3.65625 -4.265625 C 4.207031 -4.140625 4.65625 -4.007812 5 -3.875 C 5.351562 -3.75 5.65625 -3.546875 5.90625 -3.265625 C 6.164062 -2.984375 6.296875 -2.597656 6.296875 -2.109375 C 6.296875 -1.703125 6.175781 -1.328125 5.9375 -0.984375 C 5.707031 -0.640625 5.363281 -0.367188 4.90625 -0.171875 C 4.445312 0.0234375 3.890625 0.125 3.234375 0.125 Z M 3.234375 0.125 "/></g></g></g><g fill="#0B3954" fill-opacity="1"><g transform="translate(127.649768, 258.41424)"><g><path d="M 0.859375 -7.21875 L 2.53125 -7.21875 L 2.53125 0 L 0.859375 0 Z M 0.859375 -7.21875 "/></g></g></g><g fill="#0B3954" fill-opacity="1"><g transform="translate(132.684579, 258.41424)"><g><path d="M 3.234375 0.125 C 2.660156 0.125 2.109375 0.046875 1.578125 -0.109375 C 1.046875 -0.265625 0.613281 -0.46875 0.28125 -0.71875 L 0.859375 -1.96875 C 1.160156 -1.738281 1.523438 -1.554688 1.953125 -1.421875 C 2.378906 -1.285156 2.804688 -1.21875 3.234375 -1.21875 C 3.710938 -1.21875 4.0625 -1.285156 4.28125 -1.421875 C 4.507812 -1.566406 4.625 -1.753906 4.625 -1.984375 C 4.625 -2.160156 4.554688 -2.304688 4.421875 -2.421875 C 4.296875 -2.535156 4.125 -2.625 3.90625 -2.6875 C 3.695312 -2.757812 3.414062 -2.835938 3.0625 -2.921875 C 2.507812 -3.046875 2.054688 -3.171875 1.703125 -3.296875 C 1.359375 -3.429688 1.0625 -3.644531 0.8125 -3.9375 C 0.5625 -4.226562 0.4375 -4.613281 0.4375 -5.09375 C 0.4375 -5.507812 0.546875 -5.890625 0.765625 -6.234375 C 0.992188 -6.578125 1.335938 -6.847656 1.796875 -7.046875 C 2.253906 -7.242188 2.8125 -7.34375 3.46875 -7.34375 C 3.9375 -7.34375 4.390625 -7.285156 4.828125 -7.171875 C 5.265625 -7.066406 5.648438 -6.910156 5.984375 -6.703125 L 5.46875 -5.4375 C 4.800781 -5.8125 4.132812 -6 3.46875 -6 C 3 -6 2.648438 -5.921875 2.421875 -5.765625 C 2.203125 -5.617188 2.09375 -5.421875 2.09375 -5.171875 C 2.09375 -4.929688 2.21875 -4.75 2.46875 -4.625 C 2.726562 -4.5 3.125 -4.378906 3.65625 -4.265625 C 4.207031 -4.140625 4.65625 -4.007812 5 -3.875 C 5.351562 -3.75 5.65625 -3.546875 5.90625 -3.265625 C 6.164062 -2.984375 6.296875 -2.597656 6.296875 -2.109375 C 6.296875 -1.703125 6.175781 -1.328125 5.9375 -0.984375 C 5.707031 -0.640625 5.363281 -0.367188 4.90625 -0.171875 C 4.445312 0.0234375 3.890625 0.125 3.234375 0.125 Z M 3.234375 0.125 "/></g></g></g><g fill="#0B3954" fill-opacity="1"><g transform="translate(140.916285, 258.41424)"><g><path d="M 3.234375 0.125 C 2.660156 0.125 2.109375 0.046875 1.578125 -0.109375 C 1.046875 -0.265625 0.613281 -0.46875 0.28125 -0.71875 L 0.859375 -1.96875 C 1.160156 -1.738281 1.523438 -1.554688 1.953125 -1.421875 C 2.378906 -1.285156 2.804688 -1.21875 3.234375 -1.21875 C 3.710938 -1.21875 4.0625 -1.285156 4.28125 -1.421875 C 4.507812 -1.566406 4.625 -1.753906 4.625 -1.984375 C 4.625 -2.160156 4.554688 -2.304688 4.421875 -2.421875 C 4.296875 -2.535156 4.125 -2.625 3.90625 -2.6875 C 3.695312 -2.757812 3.414062 -2.835938 3.0625 -2.921875 C 2.507812 -3.046875 2.054688 -3.171875 1.703125 -3.296875 C 1.359375 -3.429688 1.0625 -3.644531 0.8125 -3.9375 C 0.5625 -4.226562 0.4375 -4.613281 0.4375 -5.09375 C 0.4375 -5.507812 0.546875 -5.890625 0.765625 -6.234375 C 0.992188 -6.578125 1.335938 -6.847656 1.796875 -7.046875 C 2.253906 -7.242188 2.8125 -7.34375 3.46875 -7.34375 C 3.9375 -7.34375 4.390625 -7.285156 4.828125 -7.171875 C 5.265625 -7.066406 5.648438 -6.910156 5.984375 -6.703125 L 5.46875 -5.4375 C 4.800781 -5.8125 4.132812 -6 3.46875 -6 C 3 -6 2.648438 -5.921875 2.421875 -5.765625 C 2.203125 -5.617188 2.09375 -5.421875 2.09375 -5.171875 C 2.09375 -4.929688 2.21875 -4.75 2.46875 -4.625 C 2.726562 -4.5 3.125 -4.378906 3.65625 -4.265625 C 4.207031 -4.140625 4.65625 -4.007812 5 -3.875 C 5.351562 -3.75 5.65625 -3.546875 5.90625 -3.265625 C 6.164062 -2.984375 6.296875 -2.597656 6.296875 -2.109375 C 6.296875 -1.703125 6.175781 -1.328125 5.9375 -0.984375 C 5.707031 -0.640625 5.363281 -0.367188 4.90625 -0.171875 C 4.445312 0.0234375 3.890625 0.125 3.234375 0.125 Z M 3.234375 0.125 "/></g></g></g><g fill="#0B3954" fill-opacity="1"><g transform="translate(149.147991, 258.41424)"><g><path d="M 6.453125 -1.34375 L 6.453125 0 L 0.859375 0 L 0.859375 -7.21875 L 6.3125 -7.21875 L 6.3125 -5.875 L 2.515625 -5.875 L 2.515625 -4.3125 L 5.875 -4.3125 L 5.875 -3.015625 L 2.515625 -3.015625 L 2.515625 -1.34375 Z M 6.453125 -1.34375 "/></g></g></g><g fill="#0B3954" fill-opacity="1"><g transform="translate(157.72001, 258.41424)"><g><path d="M 6.703125 -1.359375 L 6.703125 0 L 0.390625 0 L 0.390625 -1.078125 L 4.359375 -5.859375 L 0.46875 -5.859375 L 0.46875 -7.21875 L 6.546875 -7.21875 L 6.546875 -6.140625 L 2.59375 -1.359375 Z M 6.703125 -1.359375 "/></g></g></g><g fill="#0B3954" fill-opacity="1"><g transform="translate(166.292029, 258.41424)"><g/></g></g><g fill="#0B3954" fill-opacity="1"><g transform="translate(170.86277, 258.41424)"><g><path d="M 4.0625 0.125 C 3.03125 0.125 2.226562 -0.160156 1.65625 -0.734375 C 1.082031 -1.304688 0.796875 -2.117188 0.796875 -3.171875 L 0.796875 -7.21875 L 2.46875 -7.21875 L 2.46875 -3.234375 C 2.46875 -1.941406 3.003906 -1.296875 4.078125 -1.296875 C 4.597656 -1.296875 4.992188 -1.453125 5.265625 -1.765625 C 5.546875 -2.078125 5.6875 -2.566406 5.6875 -3.234375 L 5.6875 -7.21875 L 7.328125 -7.21875 L 7.328125 -3.171875 C 7.328125 -2.117188 7.039062 -1.304688 6.46875 -0.734375 C 5.894531 -0.160156 5.09375 0.125 4.0625 0.125 Z M 4.0625 0.125 "/></g></g></g><g fill="#0B3954" fill-opacity="1"><g transform="translate(180.641363, 258.41424)"><g><path d="M 7.484375 -7.21875 L 7.484375 0 L 6.109375 0 L 2.5 -4.390625 L 2.5 0 L 0.859375 0 L 0.859375 -7.21875 L 2.234375 -7.21875 L 5.828125 -2.84375 L 5.828125 -7.21875 Z M 7.484375 -7.21875 "/></g></g></g><g fill="#0B3954" fill-opacity="1"><g transform="translate(190.626206, 258.41424)"><g/></g></g><g fill="#0B3954" fill-opacity="1"><g transform="translate(195.196953, 258.41424)"><g><path d="M 7.421875 0 L 7.421875 -4.328125 L 5.296875 -0.765625 L 4.53125 -0.765625 L 2.421875 -4.234375 L 2.421875 0 L 0.859375 0 L 0.859375 -7.21875 L 2.234375 -7.21875 L 4.9375 -2.734375 L 7.59375 -7.21875 L 8.96875 -7.21875 L 9 0 Z M 7.421875 0 "/></g></g></g><g fill="#0B3954" fill-opacity="1"><g transform="translate(206.697738, 258.41424)"><g><path d="M 4.359375 0.125 C 3.609375 0.125 2.929688 -0.0351562 2.328125 -0.359375 C 1.722656 -0.679688 1.25 -1.125 0.90625 -1.6875 C 0.570312 -2.257812 0.40625 -2.898438 0.40625 -3.609375 C 0.40625 -4.316406 0.570312 -4.953125 0.90625 -5.515625 C 1.25 -6.085938 1.722656 -6.535156 2.328125 -6.859375 C 2.929688 -7.179688 3.609375 -7.34375 4.359375 -7.34375 C 5.097656 -7.34375 5.765625 -7.179688 6.359375 -6.859375 C 6.960938 -6.535156 7.4375 -6.085938 7.78125 -5.515625 C 8.125 -4.953125 8.296875 -4.316406 8.296875 -3.609375 C 8.296875 -2.898438 8.125 -2.257812 7.78125 -1.6875 C 7.4375 -1.125 6.960938 -0.679688 6.359375 -0.359375 C 5.765625 -0.0351562 5.097656 0.125 4.359375 0.125 Z M 4.359375 -1.296875 C 4.773438 -1.296875 5.15625 -1.394531 5.5 -1.59375 C 5.84375 -1.789062 6.113281 -2.0625 6.3125 -2.40625 C 6.507812 -2.757812 6.609375 -3.160156 6.609375 -3.609375 C 6.609375 -4.054688 6.507812 -4.453125 6.3125 -4.796875 C 6.113281 -5.148438 5.84375 -5.425781 5.5 -5.625 C 5.15625 -5.820312 4.773438 -5.921875 4.359375 -5.921875 C 3.929688 -5.921875 3.546875 -5.820312 3.203125 -5.625 C 2.859375 -5.425781 2.585938 -5.148438 2.390625 -4.796875 C 2.191406 -4.453125 2.09375 -4.054688 2.09375 -3.609375 C 2.09375 -3.160156 2.191406 -2.757812 2.390625 -2.40625 C 2.585938 -2.0625 2.859375 -1.789062 3.203125 -1.59375 C 3.546875 -1.394531 3.929688 -1.296875 4.359375 -1.296875 Z M 4.359375 -1.296875 "/></g></g></g><g fill="#0B3954" fill-opacity="1"><g transform="translate(217.05384, 258.41424)"><g><path d="M 0.859375 -7.21875 L 4.140625 -7.21875 C 4.921875 -7.21875 5.609375 -7.066406 6.203125 -6.765625 C 6.804688 -6.472656 7.273438 -6.050781 7.609375 -5.5 C 7.941406 -4.957031 8.109375 -4.328125 8.109375 -3.609375 C 8.109375 -2.890625 7.941406 -2.253906 7.609375 -1.703125 C 7.273438 -1.160156 6.804688 -0.738281 6.203125 -0.4375 C 5.609375 -0.144531 4.921875 0 4.140625 0 L 0.859375 0 Z M 4.046875 -1.375 C 4.773438 -1.375 5.351562 -1.570312 5.78125 -1.96875 C 6.207031 -2.375 6.421875 -2.921875 6.421875 -3.609375 C 6.421875 -4.296875 6.207031 -4.835938 5.78125 -5.234375 C 5.351562 -5.640625 4.773438 -5.84375 4.046875 -5.84375 L 2.53125 -5.84375 L 2.53125 -1.375 Z M 4.046875 -1.375 "/></g></g></g><g fill="#0B3954" fill-opacity="1"><g transform="translate(227.224295, 258.41424)"><g><path d="M 6.453125 -1.34375 L 6.453125 0 L 0.859375 0 L 0.859375 -7.21875 L 6.3125 -7.21875 L 6.3125 -5.875 L 2.515625 -5.875 L 2.515625 -4.3125 L 5.875 -4.3125 L 5.875 -3.015625 L 2.515625 -3.015625 L 2.515625 -1.34375 Z M 6.453125 -1.34375 "/></g></g></g><g fill="#0B3954" fill-opacity="1"><g transform="translate(235.796308, 258.41424)"><g><path d="M 0.859375 -7.21875 L 2.53125 -7.21875 L 2.53125 -1.359375 L 6.140625 -1.359375 L 6.140625 0 L 0.859375 0 Z M 0.859375 -7.21875 "/></g></g></g><g fill="#0B3954" fill-opacity="1"><g transform="translate(243.677396, 258.41424)"><g><path d="M 6.453125 -1.34375 L 6.453125 0 L 0.859375 0 L 0.859375 -7.21875 L 6.3125 -7.21875 L 6.3125 -5.875 L 2.515625 -5.875 L 2.515625 -4.3125 L 5.875 -4.3125 L 5.875 -3.015625 L 2.515625 -3.015625 L 2.515625 -1.34375 Z M 6.453125 -1.34375 "/></g></g></g></svg>